/* XPM */
static char *dummy[]={
"50 50 218 2",
"bu c #007d00",
".0 c #038300",
"#f c #048a01",
"bw c #049e00",
"#k c #069201",
"#Y c #06a101",
"## c #0c8502",
".l c #0c8b02",
"#h c #0d9202",
"#d c #0d9b02",
".x c #148304",
".v c #148c04",
".I c #149304",
".Q c #159a04",
"#a c #16a105",
".8 c #1b8d06",
"#e c #1c8607",
".J c #1c9406",
".d c #1c9b06",
".p c #1ca306",
".V c #1da907",
"#j c #1f8e08",
".N c #1f9308",
".# c #218e07",
"#w c #21a907",
"#p c #228d09",
".t c #229407",
".i c #229c07",
".n c #22a407",
".q c #238d08",
"bp c #257803",
".A c #259408",
".M c #259b08",
".1 c #268509",
"#6 c #26870c",
"#D c #268a08",
"aT c #269308",
"#q c #269309",
".G c #26a308",
"bt c #26aa08",
"#x c #29680d",
"#9 c #29770c",
"ai c #2a870a",
"av c #2a8c07",
".b c #2b940a",
"#R c #2c7e0b",
".T c #2c8e0a",
".o c #2c9b0a",
".c c #2ca30a",
"Qt c #2cab0a",
"#i c #2db409",
"bv c #2ebb0b",
"a. c #2f640e",
".F c #32950c",
"br c #335f04",
"ah c #336a0f",
"ap c #339b0c",
".a c #339c0c",
"#n c #33b80b",
"#r c #345211",
"aw c #345c04",
"#H c #348510",
".3 c #34870d",
".Y c #348d0d",
"#Q c #34990d",
".h c #34a30c",
".L c #34ab0c",
".y c #34b30c",
"#I c #354f12",
"#S c #357910",
"at c #358b11",
"bs c #359f0c",
"ae c #36860f",
"#O c #375412",
"#8 c #377111",
"#4 c #378d11",
"#3 c #385412",
"#2 c #385711",
"#v c #387210",
"#0 c #388d11",
"aj c #396711",
"#W c #399113",
"#V c #3b5a13",
"#F c #3b9210",
".s c #3b950e",
".D c #3b9d0e",
".r c #3ba30e",
".f c #3bab0d",
".2 c #3c8d0f",
"#Z c #3c9f0e",
".m c #3cb20e",
"#P c #3d5d12",
".9 c #3db90d",
".j c #3ea210",
"aN c #3f6106",
"bg c #3f860c",
"an c #3f8910",
".6 c #3f9c10",
"as c #40500a",
"au c #406114",
"#E c #408d11",
"#c c #40910f",
"al c #40a40f",
"af c #416614",
".u c #419b0f",
".g c #41a40f",
".e c #41ab0f",
"bb c #425a06",
"ab c #429111",
"bl c #42a10e",
".U c #42b30f",
"a7 c #435c06",
"ac c #436615",
"bo c #438f0e",
"a# c #439414",
"#g c #439c10",
"ar c #441302",
"b# c #443804",
".w c #44a410",
"#l c #44ba0f",
"ba c #450801",
"a0 c #456005",
".B c #45ab10",
".K c #45b310",
"aC c #461002",
"aH c #461802",
"aq c #462002",
".5 c #46bc10",
"aD c #470f02",
"bh c #476409",
"aa c #477015",
"bi c #480801",
"a9 c #480a01",
"ag c #489113",
".7 c #489212",
"am c #489313",
"bc c #491101",
"aY c #492604",
"bq c #495809",
"a4 c #496c0a",
"#B c #497016",
"aU c #497515",
"#1 c #499915",
"bd c #4a0901",
"bn c #4a6009",
"#C c #4a7316",
"#5 c #4a7418",
".R c #4aa511",
"#X c #4ab412",
"aO c #4b6909",
".H c #4bab11",
".E c #4bb212",
".S c #4bba12",
"ao c #4c9416",
"#m c #4c9c13",
"aF c #4d1003",
"ad c #4e9617",
"bx c #4f8c14",
"ak c #4f9416",
"bm c #50740b",
"#T c #517e19",
"#s c #518119",
".C c #52ac13",
"bf c #536405",
"#u c #53841a",
".X c #53a613",
".Z c #53b313",
"#U c #54861a",
".k c #549b16",
".W c #54bb13",
"be c #552103",
".P c #55c114",
".O c #55cc13",
"bk c #565c07",
".4 c #59ad16",
"#A c #5a901c",
"#y c #5a911c",
".z c #5ac116",
"#J c #5b941c",
"#. c #5bb316",
"#b c #5bbc15",
"a6 c #5d6207",
"#z c #5d961d",
"#N c #5d981d",
"aX c #5e3703",
"#M c #5e981e",
"#7 c #60b417",
"#L c #65a120",
"#G c #67c818",
"ax c #690901",
"b. c #69650a",
"#K c #6ba822",
"#o c #6dc219",
"bj c #6e5e0b",
"aE c #6f0a01",
"#t c #74b325",
"a1 c #750a01",
"aA c #7b0c02",
"a8 c #7d0a01",
"a3 c #7d5c0a",
"a2 c #800b01",
"aI c #810b01",
"aV c #820b01",
"a5 c #870c01",
"aZ c #8d0c01",
"aM c #9b0f03",
"aB c #9f0f03",
"aP c #a90f02",
"aS c #b51003",
"aW c #bc1103",
"aQ c #bf1103",
"ay c #c11103",
"aK c #c11203",
"aG c #c21002",
"aJ c #c21203",
"az c #c41203",
"aL c #fd8469",
"aR c #fd866c",
"Qt.#.a.b.c.d.e.a.f.b.g.h.i.g.j.k.a.l.m.n.e.l.o.p.f.q.g.r.s.f.t.d.r.u.b.s.i.v.w.x.y.w.r.i.z.r.#.c.A.B",
".C.a.D.E.r.o.F.G.i.A.i.H.i.I.g.f.b.o.w.h.w.v.b.J.AQt.A.f.a.K.r.L.f.G.r.c.M.g.B.o.f.N.b.C.g.I.e.o.a.I",
".f.O.M.h.fQt.q.o.H.d.m.#.M.H.P.h.s.Q.aQt.D.e.w.a.h.R.i.v.S.J.y.R.m.T.g.h.U.g.r.J.h.R.K.d.f.s.V.t.M.e",
".R.a.J.B.r.w.R.h.M.A.K.e.d.o.J.G.x.C.G.W.rQt.f.w.f.n.t.I.D.B.l.M.l.A.i.X.C.J.a.h.w.Q.A.A.w.r.Y.p.Z.#",
".r.h.s.i.A.D.o.WQt.G.0.A.a.r.X.i.M.i.h.h.h.1.i.Q.B.b.e.r.e.a.D.i.2.c.L.r.c.G.A.i.F.v.h.w.r.A.f.HQt.Z",
".H.a.3.b.l.t.b.g.t.#.a.H.m.o.e.h.b.r.A.C.M.h.J.E.F.L.g.H.4.f.5.a.b.r.r.U.i.a.6.F.l.X.a.n.j.r.H.J.f.c",
".K.i.e.r.B.Q.r.G.o.#.M.h.7.E.b.8.B.M.i.e.S.h.t.d.R.J.e.E.9.b.b.g#..c.M.r.J##.d.a.a#a.c.h.D.G.p.c.J.o",
".o#b.H.R.o.a.M.L.Q.L.K.8.M.J.f.R.a.v.w.d.K.e.H.i.o.c#c.r.eQt.r.Z.r.C.r#d.4.A.m.s#e#..c.h.R.r.r#a.b.o",
".D#f.e.h.G.h.W.t.f.o.s.L.m.n.B.v.F.S.a.c.r.a.d#g.m.e.a.a.M.#.B.f.H.8.w.r.E.a.E.a.i.d.S#b.a.h.M.s#h.o",
".H.w.H.h.A.o.F.8.s.o.U.a.s.Q.f.X#i.r.h.X.b.K.s.M.X.D.0.t.S.H.a.#.s.B.R#j#b.d.R.e.C.h.k.t.f.b.J.c.6.Q",
".i.h.w.K.M.F.r.a#a.B.R.Q#k.o.M.Z.oQt.b.c.8.w.H.h.c.B.M.K.D.o.m.b.A.f.a#l.J.s.I.#.A.U.2.i.D.M.u.f#b.l",
".M.F.K.Q.g.y#g.A.Y.A.s.X.H.H.n.B.a.r.m.a.K.w.b.c.A.i.r#m.A.Z.A.d.L.R.4.v.4.f.U.o.H.0.c.K.F.f.o#b.v.o",
".I.A.M.8.f.H.G.L.r.b.w.b.f.r.h.A.A.f.9.J.L.s.o.o.S.g.8.h.K.b.M#n.h.R.l.y.M.f.A.r.f.f.I.R.G.F.r.g.Y#a",
".B.I.L.J.M.h.H.o.s.B.g.h.f.M.A.r.i#h.L.a.t.D.r.F.H.b.c.r.G.A.o.h.oQt.Z.c.d.6.L.w.f.H.c.Q.C#o.t.r.r.o",
".Z.c.d.c#g.a.#.g.c.g.f.f.M.g.F.Z.q.8.c.b.h#a.w.o.o.a.f.f.CQt.A.v.#.a.B.j.o.M.r.r.D.o.b.H.a.H.o.H.r.W",
".b.M.#.r.J.h.h.f.I.b.o.R.a.f.D.H.b#n.E.R.e.E.r.u.Q.F#i.i.Q.s.J.h.R.a.L.n#..D.h.D.r.M.f.E.8.l.A.c.D##",
".f.f.o.d#..E.a.a.M.w.d.f.a.f.y.t.n.J.i.E.D.i.B#l#b.o.h.A.o#h.b.i.f.F.M.F.l.U.F#i.r.8.8.U.f.J.g.F.Q.w",
".r.e.b.A.c.F.f.D.b.a.r.L.h.w.L.s.h.s.b.u.M.W.A.o.#.A.X.M.a.c.q.U.U.a.Q.f.w.r.i.#.h.M.f.f.M.J.h.Z.Z.d",
"#b.J.w.d.A.A.J.r.U.J.t.a.q.r.K.Z.A#p.r#q#r#s#t#u#v.s.i.d.r.r.8.h.h.a.g.H.M#w.e.F.A.W.c.G.r.H.g.g.h.a",
"Qt.#.a.b.c.d.e.a.f.b.g.h.i.g.j.k.a#x#y#z#z#z#A#B#C#D#E#F.s.f.t.d.r.u.b.s.i.v.w.B.h.M.M.J.rQt.d#g.o.o",
".r.J.Z.K.D.r.Q.T.K.J.b#G.P.J.g#c.t.r#H#I#J#z#K#L#M#N#O#P#Q.C.w.L.o.g.o.J.F.h.a.B.b.o#R.Z.a.e.g.L.c.a",
".f.O.M.h.fQt.q.o.H.d.m.#.M.H.P.h.s.Q.a#S#T#y#z#z#U#V#z#W#X.J.y.R.m.T.g.h.U.g.h#Y.K.d.L.h.c.F.t.h.R.B",
".R.a.J.B.r.w.R.h.M.A.K.e.d.o.J.G.x.C.G.W#Z#0#1#2#3#4#5#6.D.B.l.M.l.A.i.X.C.J.d.f.o.m.a.r.n.p#..D.e.a",
".Q.F.r.t.g.h.U.f.r.M.b.Q.e.p#7.t.h.a.f.t#i#8#9a.a#.faaab.F.c.w.MQt.s.J#e#b.c.i.o.s.L.h.A#b.y.h.g.f#l",
".H.a.3.b.l.t.b.g.t.#.a.H.m.o.e.h.b.r.A.C.M.hacadae.Lafag.4.f.5.a.b.r.r.U.i.a.f.p.h.d.6.d.o.b.C.h.M.s",
".a.G.e.v.M.o.r.Q.d.Y.T#l.h.g.R.R.Q.c.l.D.E.rahai#7.Gajak.R.a.D.d.H.a.Q.C.V.e.l.F.l.w.G.D.d.8.L.h.R.A",
".o#b.H.R.o.a.M.L.Q.L.K.8.M.J.f.R.a.v.w.d.Kalam.i.o.canao.eQt.r.Z.r.C.r#d.4.A.U.q.H.H#w.h.r.f.D.h.d.C",
".D#f.e.h.G.h.W.t.f.o.s.L.m.n.B.v.F.Sapaqarasat#g.m.e.aauavaw.B.f.H.8.w.r.E.a.o.r.H.i.W.u.M.JQt.J.M.b",
".H.h.w.C.M.h.h.o.f.l.n.R.a.o.a.r.v.faxayazaAaBaC.o.caDaEaFazaGaH.o.o.K.a.D.#.H.t.3.M.T.J.o.A.M.o.H.N",
".i.h.w.K.M.F.r.a#a.B.R.Q#k.o.M.Z.oQtaIaJaKaKaLaMaNaOaPaKaJaQaRaSaT.f.a#l.J.s.c.a.l.bQt.H.G.HaU.f.f.h",
".L.D.h.d.D.a.o.T#g.H.o.S.b#b.I.A.o.gaVaWaKaKaKazaXaYaZaKaKaKaKaza0.G.B.h.e.r.G.r.f.AQt.M.S.I.r.U.b.a",
".I.A.M.8.f.H.G.L.r.b.w.b.f.r.h.A.A.fa1a2aJaKaKaVa3a4aVayaKaKaJa5a6.R.l.y.M.f.n.D.l.b.t.f.t.g.f.a.f.h",
".B.I.L.J.M.h.H.o.s.B.g.h.f.M.A.r.i#ha7a8aIaIaIa9b..bb#aIaIaIaIbabbQt.Z.c.d.6.r.G.s.K.D.o.f.D.K.J.C.e",
".r.U.p.C.Q.c.h.b.X.y.c.d.f.r.r.4#e.s.a.Bbcbdbebfbg.r.Dbhbibibjbk.r.A.B.g.b.i.I.R.R.hQt.D.r.o.w.r.o.Z",
".b.M.#.r.J.h.h.f.I.b.o.R.a.f.D.H.b#n.E.Rblbmbnbo.Q.F#i.ibpbqbrbs.R.a.L.n#..D.W.rQt.B.D.f.o.t.M.F.B.i",
".g.g.a.M.r.r#h.L.p.e.h.W.Y.L.a.v.L.g.a.R.o.x.Z.H.W.r.a.a.t.c.h.x.#.t.d#g#e.r.t.h#8.t.r.o#..T.r.o.c.v",
".r.e.b.A.c.F.f.D.b.a.r.L.h.w.L.s.h.s.b.u.M.W.A.o.#.A.X.M.a.c.q.U.U.a.Q.f.w.r.C.c.h.b.G.F.n.g.t.b.f.B",
"#b.J.w.d.A.A.J.r.U.J.t.a.q.r.K.Z.A.d.r.i.f.T.S.r.h.s.i.d.r.r.8.h.h.a.g.H.M#w.D.y.r.v.M#7.v.m.d.o.a.Q",
"Qt.#.a.b.c.d.e.a.f.b.g.h.i.g.j.k.a.l.m.n.e.l.o.p.f.q.g.r.s.f.t.d.r.u.b.s.i.v.K.e.H#m.l.8.e.m.J.M.y.H",
".C.a.D.E.r.o.F.G.i.A.i.H.i.I.g.f.b.o.w.h.w.v.b.J.AQt.A.f.a.K.r.L.f.G.r.c.M.g.c.t.a.h#m.m.E.a.f##.#.m",
".f.O.M.h.fQt.q.o.H.d.m.#.M.H.P.h.s.Q.aQt.D.e.w.a.h.R.i.v.S.J.y.R.m.T.g.h.U.g.w.I.D.C.t.o.r.b.f.m.H.w",
".T.F.D.r.H#g.S.c.D.r.g.Sbt.a.J.bbu.W.L.M.D.c.K.x.B.d.h.i.R.9.a.a.i.t.A#b.u.M.c.o.w.K.h.c.a.M#a.t.o.S",
".r.h.s.i.A.D.o.WQt.G.0.A.a.r.X.i.M.i.h.h.h.1.i.Q.B.b.e.r.e.a.D.i.2.c.L.r.c.G.h.h.C.d.c.v.CQt#g.ebv.E",
".H.a.3.b.l.t.b.g.t.#.a.H.m.o.e.h.b.r.A.C.M.h.J.E.F.L.g.H.4.f.5.a.b.r.r.U.i.a#a.G.h.K.g#a.a.8.E.l.D.M",
".K.i.e.r.B.Q.r.G.o.#.M.h.7.E.b.8.B.M.i.e.S.h.t.d.R.J.e.E.9.b.b.g#..c.M.r.J##.a.b.D.J.d.H.h.c.s.o.A.f",
".o#b.H.R.o.a.M.L.Q.L.K.8.M.J.f.R.a.v.w.d.K.e.H.i.o.c#c.r.eQt.r.Z.r.C.r#d.4.A.B.a.d.Cbw.D.r.D.X.g.h.a",
".X.A#..w.L.S.F.#.#.I.J.r.l.t.h.p.M.K.D.w.s.y.J.B.i.U.r.l.c.A.J.h.c#k.6.a.h.r.R.f.E.r.D.Q.D#i.I.G.s.M",
".H.w.H.h.A.o.F.8.s.o.U.a.s.Q.f.X#i.r.h.X.b.K.s.M.X.D.0.t.S.H.a.#.s.B.R#j#b.d.R.o.x.Mbx.W.A.a.p.h.c.b",
".i.h.w.K.M.F.r.a#a.B.R.Q#k.o.M.Z.oQt.b.c.8.w.H.h.c.B.M.K.D.o.m.b.A.f.a#l.J.s.o.X.h.t.c.D.o.R.Y.h.m.b",
".M.F.K.Q.g.y#g.A.Y.A.s.X.H.H.n.B.a.r.m.a.K.w.b.c.A.i.r#m.A.Z.A.d.L.R.4.v.4.f.i.L.T.d#8.h.t.i.U.H.r#h"};
