/* XPM */
static char *dummy[]={
"50 50 304 2",
"#z c #000000",
"#H c #000001",
"#R c #000002",
"aK c #000003",
"#K c #000100",
"#G c #000101",
"#J c #000102",
"#L c #000103",
"aj c #000104",
"#3 c #000201",
"#M c #000202",
"bO c #000203",
"bI c #000204",
"#0 c #000301",
"b6 c #000302",
"cx c #000403",
"cM c #007d00",
"#V c #010000",
"#E c #010001",
"bC c #010002",
"bT c #010100",
"#C c #010101",
"#6 c #010102",
"bD c #010103",
"al c #010205",
"#D c #020001",
"#4 c #020102",
"#Q c #020103",
"#9 c #030000",
"ap c #030204",
"b3 c #030303",
"b1 c #030404",
"bW c #030506",
".0 c #038300",
"bQ c #040003",
"ar c #040102",
"am c #040301",
"#f c #048a01",
"cP c #049e00",
"bV c #050404",
"b2 c #050406",
"cQ c #069201",
"ab c #070204",
"aq c #070205",
"#P c #080203",
"aa c #080206",
"ch c #080909",
"c# c #090909",
"ca c #090a08",
"## c #0c8502",
".l c #0c8b02",
"#x c #0d9202",
"#d c #0d9b02",
"cg c #0e0a0a",
"cn c #0e0f0e",
"b5 c #0e1010",
"b7 c #0f0f0f",
"#I c #121b15",
"#y c #141414",
".x c #148304",
".v c #148c04",
".I c #149304",
"bR c #151515",
"bN c #151718",
".Q c #159a04",
"#B c #161516",
"#A c #161616",
"#O c #161a1a",
"#a c #16a105",
"c. c #171717",
"cE c #171818",
"cm c #181818",
"#F c #1a1719",
"bU c #1a1a1a",
"#W c #1a2319",
".8 c #1b8d06",
"cD c #1c1c1c",
"#e c #1c8607",
".J c #1c9406",
".d c #1c9b06",
".p c #1ca306",
".V c #1da907",
"cS c #1f8e08",
".N c #1f9308",
"#5 c #202620",
"cl c #21050a",
".# c #218e07",
"bM c #21a907",
".t c #229407",
".i c #229c07",
".n c #22a407",
"cj c #23040a",
"cz c #231013",
".q c #238d08",
"cv c #241e1f",
".A c #259408",
".M c #259b08",
"ak c #26271e",
".1 c #268509",
"#k c #268c18",
".G c #26a308",
"cL c #26aa08",
"aU c #28080e",
"cK c #2a9f11",
"bA c #2b4325",
".b c #2b940a",
"cB c #2c1116",
"#t c #2c8d1a",
".T c #2c8e0a",
"bG c #2c991a",
".o c #2c9b0a",
".c c #2ca30a",
"Qt c #2cab0a",
"cR c #2db409",
"bp c #2e4625",
"bz c #2e4626",
"br c #2e4828",
"cO c #2ebb0b",
"#q c #2f8e18",
"bq c #314927",
"cJ c #319a16",
".F c #32950c",
"#i c #32a11a",
".a c #339c0c",
".3 c #34870d",
".Y c #348d0d",
".h c #34a30c",
".L c #34ab0c",
".y c #34b30c",
"cw c #377111",
"bc c #3a1019",
"bn c #3a1117",
"#o c #3aa01d",
"bj c #3b1118",
".s c #3b950e",
".D c #3b9d0e",
".r c #3ba30e",
".f c #3bab0d",
".2 c #3c8d0f",
"as c #3c9d1f",
".m c #3cb20e",
"bo c #3d0d16",
".9 c #3db90d",
"aV c #3e0409",
".j c #3ea210",
"cN c #3ea618",
"#l c #3f941f",
".6 c #3f9c10",
"aW c #40060d",
"cI c #401e23",
"#c c #40910f",
"#n c #409a1f",
"#g c #40a81d",
".u c #419b0f",
".g c #41a40f",
".e c #41ab0f",
".U c #42b30f",
"#p c #439c10",
"aZ c #440a14",
".w c #44a410",
"bB c #44ba0f",
"a6 c #450914",
".B c #45ab10",
".K c #45b310",
".5 c #46bc10",
"#v c #47a020",
"#Z c #47a620",
"#r c #47a720",
".7 c #489212",
"#h c #48ad20",
"b4 c #497515",
"aL c #4a0812",
".R c #4aa511",
".H c #4bab11",
".E c #4bb212",
".S c #4bba12",
"#N c #4c9c13",
"bH c #4ea022",
"cT c #4f8c14",
"#u c #4fa122",
"#j c #4fa722",
".C c #52ac13",
"by c #534138",
".X c #53a613",
".Z c #53b313",
".k c #549b16",
"#s c #54a723",
".W c #54bb13",
"aE c #550412",
"a. c #55a623",
"bL c #55a624",
"#w c #55ad24",
"#m c #55b324",
".P c #55c114",
".O c #55cc13",
".4 c #59ad16",
".z c #5ac116",
"#. c #5bb316",
"#b c #5bbc15",
"cC c #60b417",
"a# c #6dc219",
"bv c #d81532",
"bs c #da132e",
"bw c #db1230",
"bt c #db1432",
"bx c #e20d2c",
"bu c #e50827",
"bf c #f3ccd1",
"cF c #f5062a",
"cG c #f50d2f",
"aX c #f6092c",
"aS c #f6ced6",
"aQ c #f6d0d7",
"bh c #f6e7ed",
"cs c #f71235",
"b. c #f7f3f2",
"a3 c #f7f7f6",
"aR c #f8dde3",
"aT c #f90124",
"bl c #f90126",
"cc c #f90328",
"cr c #f90329",
"bg c #f9e6e7",
"aH c #f9fbfd",
"aO c #f9fffe",
"ao c #fa052a",
"aP c #fafdfd",
"aw c #faffff",
"aN c #fb0020",
"ag c #fb0021",
"a9 c #fb0023",
"bm c #fb0024",
"at c #fb042a",
"cp c #fb092d",
"ct c #fb1135",
"af c #fc0022",
"a4 c #fc0023",
"ba c #fc0024",
"aG c #fc0127",
"aC c #fc0128",
"a8 c #fc0129",
"bF c #fc0226",
"au c #fc0227",
"ah c #fc0228",
"ac c #fc0229",
"a1 c #fc022a",
"#X c #fc072c",
"b9 c #fc092d",
"b# c #fcffff",
"av c #fd0020",
"ad c #fd0022",
"ae c #fd0023",
"be c #fd0026",
"#Y c #fd0027",
"#2 c #fd0127",
"#T c #fd0128",
"ai c #fd0129",
"bd c #fd0228",
"#8 c #fd0229",
"a0 c #fd0327",
"cq c #fd0428",
"co c #fd0930",
"ay c #fdfefe",
"aB c #fdffff",
"aJ c #fe0023",
"a2 c #fe0024",
"bb c #fe0027",
"#U c #fe0028",
"a5 c #fe0127",
"aD c #fe0128",
"a7 c #fe012a",
"bk c #fe0226",
"aF c #fe0228",
"cH c #fe0327",
"cu c #fe0c32",
"aI c #fefcfd",
"aA c #fefdfe",
"ax c #fefefe",
"az c #fefffe",
"aY c #ff0026",
"bi c #ff0027",
"ci c #ff0029",
"cy c #ff0127",
"bJ c #ff0128",
"b0 c #ff0129",
"b8 c #ff012a",
"aM c #ff0228",
"#7 c #ff0229",
"bZ c #ff022b",
"cb c #ff022d",
"bY c #ff0328",
"an c #ff0329",
"bK c #ff032a",
"bE c #ff032b",
"#1 c #ff032d",
"cd c #ff0429",
"ce c #ff042b",
"cA c #ff042c",
"bP c #ff062d",
"#S c #ff062e",
"ck c #ff072d",
"cf c #ff082e",
"bX c #ff082f",
"bS c #ff092f",
"Qt.#.a.b.c.d.e.a.f.b.g.h.i.g.j.k.a.l.m.n.e.l.o.p.f.q.g.r.s.f.t.d.r.u.b.s.i.v.w.x.y.w.r.i.z.r.#.c.A.B",
".C.a.D.E.r.o.F.G.i.A.i.H.i.I.g.f.b.o.w.h.w.v.b.J.AQt.A.f.a.K.r.L.f.G.r.c.M.g.B.o.f.N.b.C.g.I.e.o.a.I",
".f.O.M.h.fQt.q.o.H.d.m.#.M.H.P.h.s.Q.aQt.D.e.w.a.h.R.i.v.S.J.y.R.m.T.g.h.U.g.r.J.h.R.K.d.f.s.V.t.M.e",
".R.a.J.B.r.w.R.h.M.A.K.e.d.o.J.G.x.C.G.W.rQt.f.w.f.n.t.I.D.B.l.M.l.A.i.X.C.J.a.h.w.Q.A.A.w.r.Y.p.Z.#",
".r.h.s.i.A.D.o.WQt.G.0.A.a.r.X.i.M.i.h.h.h.1.i.Q.B.b.e.r.e.a.D.i.2.c.L.r.c.G.A.i.F.v.h.w.r.A.f.HQt.Z",
".H.a.3.b.l.t.b.g.t.#.a.H.m.o.e.h.b.r.A.C.M.h.J.E.F.L.g.H.4.f.5.a.b.r.r.U.i.a.6.F.l.X.a.n.j.r.H.J.f.c",
".K.i.e.r.B.Q.r.G.o.#.M.h.7.E.b.8.B.M.i.e.S.h.t.d.R.J.e.E.9.b.b.g#..c.M.r.J##.d.a.a#a.c.h.D.G.p.c.J.o",
".o#b.H.R.o.a.M.L.Q.L.K.8.M.J.f.R.a.v.w.d.K.e.H.i.o.c#c.r.eQt.r.Z.r.C.r#d.4.A.m.s#e#..c.h.R.r.r#a.b.o",
".D#f.e.h.G.h.W.t.f.o.s#g#h#i#j#k#l#m#n#o.r.a.d#p.m.e.a.a.M#q#j#r#s#t#u#v#w#n.E.a.i.d.S#b.a.h.M.s#x.o",
".H.w.H.h.A.o.F.8.s.o.U#y#z#z#z#z#z#z#z#z.b.K.s.M.X.D.0.t.S#A#z#z#z#z#z#z#z#z.R.e.C.h.k.t.f.b.J.c.6.Q",
".i.h.w.K.M.F.r.a#a.B.R#B#C#D#C#D#D#D#E#z.8.w.H.h.c.B.M.K.D#F#D#C#C#C#E#z#G#H.I.#.A.U.2.i.D.M.u.f#b.l",
".M.F.K.Q.g.y#p.A.Y.A.s#I#J#K#K#L#M#M#z#z.K.w.b.c.A.i.r#N.A#O#P#Q#J#G#J#L#G#G.U.o.H.0.c.K.F.f.o#b.v.o",
".I.A.M.8.f.H.G.L#z#z#R#S#T#T#T#T#T#T#U#U#z#V#z.o.S.g#W#z#R#X#Y#T#T#T#T#T#T#T#z#z#z#Z.I.R.G.F.r.g.Y#a",
".B.I.L.J.M.h.H.o#V#L#0#1#T#T#T#T#T#T#T#2#3#4#z.F.H.b#5#6#3#7#T#T#T#T#T#T#T#8#J#Q#9a..c.Q.Ca#.t.r.r.o",
".Z.c.d.c#p.a.#.g#Jaaabacadaeafafagah#Tai#0aj#K.o.o.aakalaman#T#T#T#T#T#T#Taoapaqaras.b.H.a.H.o.H.r.W",
".b.M.#.r.J#z#z#JatauavawaxayazaAaBad#T#T#T#TaC#R#z#Jat#T#T#T#T#T#T#T#T#T#T#T#T#TaDaE#z#z.8.l.A.c.D##",
".f.f.o.d#.#z#z#LaFaGafaHaxaxaxaIaAaJ#T#T#T#TaDaK#z#Rao#T#T#T#T#T#T#T#T#T#T#T#T#T#2aL#z#z.f.J.g.F.Q.w",
".r.e.b.A.c#z#zajaMaGaNaOaxaPaQaRaSaT#T#T#T#TaiaUaVaWaX#T#T#T#T#T#T#T#T#T#T#T#T#TaYaZ#z#z.M.J.h.Z.Z.d",
"#b.J.w.d.A#z#zaja0a1a2a3aAaOa4aCaC#T#T#T#T#T#T#Tai#Tau#T#T#T#T#T#T#T#T#T#T#T#T#Ta5a6#z#z.r.H.g.g.h.a",
"Qt.#.a.b.c#z#z#Ra7a8a9b.aAb#ba#T#T#T#T#T#T#T#T#T#T#T#T#T#T#T#T#T#T#T#T#T#T#T#T#Tbbbc#z#z.rQt.d#p.o.o",
".r.J.Z.K.D#z#z#Hbdaubebfbgbhba#T#T#T#T#T#T#T#T#T#T#T#T#T#T#T#T#T#T#T#T#T#T#T#T#Tbibj#z#z.a.e.g.L.c.a",
".f.O.M.h.f#z#z#Lbk#Tahblafbm#T#T#T#T#T#T#T#T#T#T#T#T#T#T#T#T#T#T#T#T#T#T#T#T#T#Tbbbn#z#z.c.F.t.h.R.B",
".R.a.J.B.r#z#z#Ja5#T#T#T#T#T#T#T#T#T#T#T#T#T#T#T#T#T#T#T#T#T#T#T#T#T#T#T#T#T#T#Tbibo#z#z.n.p#..D.e.a",
".Q.F.r.t.gbpbqbrbsbtbu#T#T#T#T#T#T#T#T#T#T#T#T#T#T#T#T#T#T#T#T#T#T#T#T#T#TaubvbwbxbybzbA#b.y.h.g.fbB",
".H.a.3.b.l.t.b.gbCbDajbE#T#T#T#T#T#T#T#T#T#T#T#T#T#T#T#T#T#T#T#T#T#T#T#T#TbF#z#G#HbG.6.d.o.b.C.h.M.s",
".a.G.e.v.M.o.r.Q#z#z#L#7#T#T#T#T#T#T#T#T#T#T#T#T#T#T#T#T#T#T#T#T#T#T#T#T#Ta5#z#z#zbH.G.D.d.8.L.h.R.A",
".o#b.H.R.o.a.M.L#z#CbI#SbJ#7aC#T#T#T#T#T#T#T#T#T#T#T#T#T#T#T#T#T#T#T#TbKbJaM#H#C#zbLbM.h.r.f.D.h.d.C",
".D#f.e.h.G.h.W.t.f.o.sbN#JbObP#T#T#T#T#T#T#T#T#T#T#T#T#T#T#T#T#T#T#TbF#GbQ#z.o.r.H.i.W.u.M.JQt.J.M.b",
".H.h.w.C.M.h.h.o.f.l.nbR#z#RbS#T#T#T#T#T#T#T#T#T#T#T#T#T#T#T#T#T#T#TaG#HbT#z.H.t.3.M.T.J.o.A.M.o.H.N",
".i.h.w.K.M.F.r.a#a.B.RbUbVbWbXbYbZac#T#T#T#T#T#T#T#T#T#T#T#T#T#8b0#7bZb1b2b3.c.a.l.bQt.H.G.Hb4.f.f.h",
".L.D.h.d.D.a.o.T#p.H.o.S.b#bb5#zbDb0#T#T#T#T#T#T#T#T#T#T#T#T#Tatb6#zaK.h.e.r.G.r.f.AQt.M.S.I.r.U.b.a",
".I.A.M.8.f.H.G.L.r.b.w.b.f.rb7#z#Gb8#T#T#T#T#T#T#T#T#T#T#T#T#Tb9#M#z#z.y.M.f.n.D.l.b.t.f.t.g.f.a.f.h",
".B.I.L.J.M.h.H.o.s.B.g.h.f.Mc.c#cacb#7bKcc#T#T#T#T#T#T#T#Tcdcecfcgc#c#.c.d.6.r.G.s.K.D.o.f.D.K.J.C.e",
".r.U.p.C.Q.c.h.b.X.y.c.d.f.r.r.4#ech#R#Hci#T#T#T#T#T#T#T#Scj#H#z.r.A.B.g.b.i.I.R.R.hQt.D.r.o.w.r.o.Z",
".b.M.#.r.J.h.h.f.I.b.o.R.a.f.D.H.bc##z#zb0#T#T#U#TaF#T#Tckcl#H#z.R.a.L.n#..D.W.rQt.B.D.f.o.t.M.F.B.i",
".g.g.a.M.r.r#x.L.p.e.h.W.Y.L.a.v.Lcmb7cncocpcqcr#T#Tcsctcucvb7b7.#.t.d#p#e.r.t.hcw.t.r.o#..T.r.o.c.v",
".r.e.b.A.c.F.f.D.b.a.r.L.h.w.L.s.h.s.b.ucx#K#K#7#Tcycz#z#z.c.q.U.U.a.Q.f.w.r.C.c.h.b.G.F.n.g.t.b.f.B",
"#b.J.w.d.A.A.J.r.U.J.t.a.q.r.K.Z.A.d.r.ib3#z#RcA#Ta5cB#z#z.r.8.h.h.a.g.H.MbM.D.y.r.v.McC.v.m.d.o.a.Q",
"Qt.#.a.b.c.d.e.a.f.b.g.h.i.g.j.k.a.l.m.ncDc.cEcFcGcHcIc.c..f.t.d.r.u.b.s.i.v.K.e.H#N.l.8.e.m.J.M.y.H",
".C.a.D.E.r.o.F.G.i.A.i.H.i.I.g.f.b.o.w.h.w.v.b#K#K#zcJ.f.a.K.r.L.f.G.r.c.M.g.c.t.a.h#N.m.E.a.f##.#.m",
".f.O.M.h.fQt.q.o.H.d.m.#.M.H.P.h.s.Q.aQt.D.e.w#z#z#zcK.v.S.J.y.R.m.T.g.h.U.g.w.I.D.C.t.o.r.b.f.m.H.w",
".T.F.D.r.H#p.S.c.D.r.g.ScL.a.J.bcM.W.L.M.D.c.K#z#z#zcN.i.R.9.a.a.i.t.A#b.u.M.c.o.w.K.h.c.a.M#a.t.o.S",
".r.h.s.i.A.D.o.WQt.G.0.A.a.r.X.i.M.i.h.h.h.1.i.Q.B.b.e.r.e.a.D.i.2.c.L.r.c.G.h.h.C.d.c.v.CQt#p.ecO.E",
".H.a.3.b.l.t.b.g.t.#.a.H.m.o.e.h.b.r.A.C.M.h.J.E.F.L.g.H.4.f.5.a.b.r.r.U.i.a#a.G.h.K.g#a.a.8.E.l.D.M",
".K.i.e.r.B.Q.r.G.o.#.M.h.7.E.b.8.B.M.i.e.S.h.t.d.R.J.e.E.9.b.b.g#..c.M.r.J##.a.b.D.J.d.H.h.c.s.o.A.f",
".o#b.H.R.o.a.M.L.Q.L.K.8.M.J.f.R.a.v.w.d.K.e.H.i.o.c#c.r.eQt.r.Z.r.C.r#d.4.A.B.a.d.CcP.D.r.D.X.g.h.a",
".X.A#..w.L.S.F.#.#.I.J.r.l.t.h.p.M.K.D.w.s.y.J.B.i.U.r.l.c.A.J.h.ccQ.6.a.h.r.R.f.E.r.D.Q.DcR.I.G.s.M",
".H.w.H.h.A.o.F.8.s.o.U.a.s.Q.f.XcR.r.h.X.b.K.s.M.X.D.0.t.S.H.a.#.s.B.RcS#b.d.R.o.x.McT.W.A.a.p.h.c.b",
".i.h.w.K.M.F.r.a#a.B.R.QcQ.o.M.Z.oQt.b.c.8.w.H.h.c.B.M.K.D.o.m.b.A.f.abB.J.s.o.X.h.t.c.D.o.R.Y.h.m.b",
".M.F.K.Q.g.y#p.A.Y.A.s.X.H.H.n.B.a.r.m.a.K.w.b.c.A.i.r#N.A.Z.A.d.L.R.4.v.4.f.i.L.T.dcw.h.t.i.U.H.r#x"};
