/* XPM */
static char *dummy[]={
"50 50 744 2",
"ap c #000000",
"fi c #000001",
"gN c #000004",
"fc c #000100",
"hA c #000207",
"hS c #000409",
"hR c #00050d",
"hn c #000610",
"hl c #000713",
"g7 c #000c23",
"g6 c #001433",
"hD c #001535",
"h5 c #00183d",
"hk c #001d4a",
"hi c #001e42",
"hC c #001f4e",
"hB c #002352",
"hj c #002c5f",
"hm c #010000",
"gZ c #010100",
"g. c #010101",
"fX c #010102",
"iA c #010200",
"fb c #010300",
"f2 c #010400",
"i7 c #020100",
"gu c #020202",
"gG c #020203",
"jH c #020204",
"hE c #020302",
"hd c #020700",
"jf c #020b00",
"eS c #024200",
"hT c #030100",
"ab c #030303",
"gT c #030304",
"fy c #030701",
"iP c #030b01",
"gj c #030c01",
".0 c #038300",
"hQ c #040403",
"bA c #040404",
"i. c #040406",
"g5 c #040700",
"eT c #040a01",
"dH c #040d01",
"#n c #048a01",
"jv c #049e00",
"eP c #050403",
"dy c #050404",
"f# c #050506",
"g8 c #050507",
"f7 c #050508",
"fB c #050a01",
"d0 c #052501",
"gQ c #060608",
"hI c #060609",
"fe c #060e01",
"iL c #061104",
"jL c #069201",
"cI c #06a101",
"bf c #070707",
"i2 c #070709",
"in c #07070b",
"gL c #071402",
"fS c #080706",
"e4 c #08090a",
"gn c #08090c",
"a# c #080a0a",
"i5 c #081102",
"di c #081902",
"fz c #081b02",
"h4 c #090807",
"hy c #09090a",
"bg c #090a0a",
"dh c #091702",
"e9 c #0a0a08",
"i# c #0a0a09",
"eO c #0a0a0a",
"jt c #0a0a0d",
"ja c #0a0a0f",
"iu c #0a0d0a",
"fd c #0a2602",
"iF c #0b0704",
"aW c #0b0b08",
"fF c #0b0b0b",
"ij c #0b3302",
"hu c #0c2203",
"## c #0c8502",
".l c #0c8b02",
"cX c #0d0b0b",
"a9 c #0d0c0c",
"gC c #0d2f03",
"cY c #0d3b03",
"#B c #0d9202",
"#l c #0d9b02",
"ch c #0e0201",
"iU c #0e0906",
"gt c #0e0d0b",
"gF c #0e0d0d",
"f8 c #0e0e0e",
"jF c #0e0e12",
"gI c #0e1f03",
"iq c #0f0a05",
"eD c #0f0c0c",
"gi c #0f0f14",
"fq c #0f2303",
"jc c #0f4d03",
"da c #100e0b",
"gh c #100e0f",
"dj c #103a04",
"jm c #110c07",
"cU c #110e0c",
"gf c #11100f",
"aI c #11110f",
"fH c #111111",
"fQ c #111116",
"ft c #120f0f",
"go c #121217",
"g9 c #121218",
"fT c #121b06",
"hg c #130f10",
"ga c #131110",
"gz c #131211",
"gA c #131311",
"iM c #132504",
"gR c #141418",
"hp c #143c05",
".x c #148304",
".v c #148c04",
"e7 c #149104",
".I c #149304",
"bU c #151515",
"jw c #154f05",
"h. c #155904",
"hv c #156204",
".Q c #159a04",
"fG c #161616",
"dg c #164805",
"jb c #165e05",
"fo c #167405",
"#a c #16a105",
"gk c #171413",
"#3 c #171512",
"g2 c #171717",
"f1 c #17171a",
"jE c #17171f",
"e1 c #181818",
"jC c #183606",
"hH c #184b06",
"gd c #191714",
"f0 c #191919",
"jB c #19191e",
"cT c #191a1c",
"ec c #192309",
"jk c #194b06",
"jJ c #198b05",
"h8 c #1a1a1a",
"je c #1a1a23",
"e0 c #1b1815",
"gp c #1b1b20",
"fJ c #1b1b22",
"g1 c #1b6006",
".8 c #1b8d06",
"ge c #1c1c1c",
"fw c #1c1c1d",
"jG c #1c1c24",
"iZ c #1c5806",
"#m c #1c8607",
".J c #1c9406",
".d c #1c9b06",
".p c #1ca306",
"bG c #1d1a17",
"fx c #1d1d1d",
"iS c #1d1d25",
"#2 c #1d1e1b",
".V c #1da907",
"e5 c #1e1b19",
"fk c #1e1e1e",
"iQ c #1e6a07",
"hX c #1e8906",
"cw c #1f1a19",
"gS c #1f1f1e",
"fa c #1f1f1f",
"hO c #1f2028",
"cn c #1f8d06",
"#M c #1f8e08",
".N c #1f9308",
"eJ c #201c19",
"a1 c #202020",
"ih c #202028",
"iE c #20202a",
"bt c #208503",
"d4 c #208607",
"gw c #213506",
"g0 c #216608",
"dD c #217108",
".# c #218e07",
"bN c #21a907",
"cS c #221e1d",
"h9 c #229207",
".t c #229407",
".i c #229c07",
".n c #22a407",
"iT c #23232c",
"fW c #23340c",
".q c #238d08",
"fA c #239208",
"fl c #242424",
"f3 c #249908",
"a2 c #252525",
".A c #259408",
".M c #259b08",
"iC c #26262a",
"gq c #262630",
"eB c #26370d",
"e6 c #266409",
"it c #267309",
".1 c #268509",
".G c #26a308",
"is c #26aa08",
"jj c #282829",
"jd c #286309",
"c8 c #292321",
"gl c #292322",
"cb c #29241f",
"ig c #292933",
"ii c #295d0a",
"al c #2b0400",
"ju c #2b820a",
".b c #2b940a",
"hw c #2c1e12",
"iY c #2c2d2d",
"ir c #2c6b0a",
"co c #2c7e0b",
"hF c #2c8b0a",
".T c #2c8e0a",
".o c #2c9b0a",
".c c #2ca30a",
"Qt c #2cab0a",
"ip c #2d1e0f",
"jx c #2d1f14",
"i3 c #2d2c2e",
"gU c #2d8b0b",
"ba c #2db409",
"il c #2e2826",
"d3 c #2e6904",
"eH c #2e6d0b",
"i1 c #2ebb0b",
"jA c #2f2e30",
"hJ c #2f2f2f",
"gJ c #2f7c0b",
"cF c #2f8609",
"eI c #2f870a",
"i0 c #2f920b",
"#W c #2f9309",
"hZ c #303031",
"iv c #303131",
"eV c #30450d",
"ep c #312b25",
"d. c #312b28",
"fK c #31810b",
"jl c #31950b",
"ha c #31a20b",
"iN c #323333",
"hr c #323334",
".F c #32950c",
"eZ c #332c28",
"hY c #333333",
".a c #339c0c",
"iB c #33a00c",
"ah c #33b80b",
"hL c #342311",
"j# c #343434",
"eY c #344f0d",
"gV c #34750c",
".3 c #34870d",
".Y c #348d0d",
".h c #34a30c",
".L c #34ab0c",
".y c #34b30c",
"iR c #358a0c",
"ik c #36302d",
"js c #363433",
"hq c #363636",
"eo c #364c05",
"b4 c #367408",
"az c #372f2d",
"cV c #37302a",
"iK c #373736",
"h# c #377111",
"b3 c #377308",
"hM c #382512",
"hK c #383533",
"#R c #383630",
"cH c #38920b",
"aT c #391f19",
"i4 c #392617",
"gH c #3a3a49",
"gb c #3a5515",
"cJ c #3a8d0a",
"jz c #3b2c24",
"c9 c #3b3531",
".s c #3b950e",
".D c #3b9d0e",
"ho c #3ba10d",
".r c #3ba30e",
".f c #3bab0d",
"cP c #3c342c",
"g3 c #3c3c3c",
"en c #3c5207",
"fE c #3c5715",
"jD c #3c880e",
".2 c #3c8d0f",
".m c #3cb20e",
"cK c #3d6205",
"bK c #3d7809",
".9 c #3db90d",
"gy c #3e362f",
"dX c #3e4a1f",
"c4 c #3e940d",
".j c #3ea210",
"iz c #3f2a19",
"e8 c #3f3730",
".6 c #3f9c10",
"fD c #405f18",
"#k c #40910f",
"de c #413937",
"fP c #413a36",
"dC c #415e12",
"ev c #415f18",
"#j c #416106",
"cE c #41990c",
".u c #419b0f",
".g c #41a40f",
".e c #41ab0f",
"aJ c #422802",
"ic c #422b16",
"fU c #425f18",
"jI c #42890f",
".U c #42b30f",
"dE c #435f08",
"#Y c #439c10",
"gB c #43a50f",
"bp c #440e00",
"d5 c #443b34",
"eC c #443c39",
"eA c #446219",
"fV c #446319",
"cG c #44960e",
".w c #44a410",
"#X c #44ba0f",
"du c #453d35",
"cZ c #456509",
"gc c #456519",
".B c #45ab10",
".K c #45b310",
"jy c #463123",
"dR c #463d3a",
"c7 c #464802",
"gK c #46a511",
".5 c #46bc10",
"#U c #471400",
"gs c #473e3b",
"ew c #473f35",
"dM c #473f39",
"ag c #474a04",
"#d c #475b06",
"bL c #47840c",
"em c #478a12",
".7 c #489212",
"i6 c #48a410",
"hc c #493017",
"if c #49301d",
"jg c #493118",
"fp c #497515",
"as c #4a100a",
"aA c #4a4a4a",
"he c #4a4a52",
"dG c #4a930c",
"#c c #4aa010",
".R c #4aa511",
"g4 c #4b6c15",
".H c #4bab11",
".E c #4bb212",
".S c #4bba12",
"fr c #4c4440",
"dU c #4c7115",
"hW c #4c9c13",
"bM c #4ca510",
"#N c #4e3101",
"#i c #4e3702",
"iw c #4e4133",
"h3 c #4e4e59",
"iV c #4f3420",
"f4 c #4f4542",
"ef c #4f751a",
"jK c #4f8c14",
"eW c #507716",
"au c #513202",
"h1 c #51351a",
"eg c #514d3c",
"eU c #517619",
"#I c #520900",
"#o c #524505",
"fI c #525269",
"d1 c #52ab13",
".C c #52ac13",
"at c #531206",
"hU c #534945",
".X c #53a613",
".Z c #53b313",
"hN c #543823",
"eR c #544946",
"#C c #544a05",
".k c #549b16",
".W c #54bb13",
".P c #55c114",
".O c #55cc13",
"#e c #561d00",
"dn c #567d0c",
"#7 c #56860e",
"aK c #571b00",
"dk c #572301",
"#A c #572902",
"bS c #57413b",
"cp c #574706",
"#S c #574e43",
"dB c #577f19",
"c0 c #582d03",
"#5 c #591400",
"bb c #591600",
"aX c #591a01",
"aw c #591c01",
"bJ c #591f01",
"fY c #594e4a",
"bZ c #594f4c",
".4 c #59ad16",
"dl c #5a1600",
"a. c #5a1605",
"#8 c #5a1a01",
"ai c #5a1b01",
"jo c #5a3c25",
"ee c #5a831b",
".z c #5ac116",
"#O c #5b1000",
"#Z c #5b1500",
"#D c #5b1901",
"#L c #5b3003",
"i8 c #5b3c1e",
"jp c #5b3c25",
"jn c #5b3d26",
"#. c #5bb316",
"#b c #5bbc15",
"#p c #5c1400",
"#g c #5c1500",
"bk c #5c271b",
"fs c #5c514c",
"aM c #5d0f00",
"#q c #5d1100",
"#f c #5d1600",
"#h c #5d1701",
"hP c #5d5d5c",
"dA c #5d871b",
"cm c #5e1200",
"c3 c #5e1300",
"io c #5e3e26",
"dp c #5e5249",
"b2 c #5f1300",
"b7 c #5f1402",
"iW c #5f4024",
"fC c #5f8a1c",
"bs c #601300",
"iy c #604026",
"aV c #60544c",
"im c #606062",
"iD c #606064",
"hG c #60b417",
"d2 c #611200",
"hV c #616161",
"a6 c #621404",
"gr c #625652",
"bd c #631101",
"cl c #631400",
"#6 c #631402",
"bP c #631403",
"#1 c #641303",
"c1 c #641402",
"#z c #651400",
"c5 c #651403",
"hx c #656566",
"br c #661500",
"dF c #661505",
"jq c #664427",
"ez c #66941e",
"#E c #671500",
"#H c #674032",
"#T c #681500",
"b6 c #691707",
"fN c #695d58",
"c2 c #6a1708",
"cB c #6a5e58",
"eX c #6a9a1f",
"cN c #6b1606",
"b5 c #6b1809",
"#4 c #6b392e",
"h2 c #6b4728",
"hf c #6b6b6b",
"#K c #6c1700",
"aQ c #6c1709",
"a0 c #6c2614",
"a8 c #6c5f53",
"bq c #6d1800",
"ie c #6d4829",
"av c #6dc219",
"cq c #6e190a",
"gm c #6e615c",
"c# c #6e6e6e",
"fh c #6e9f20",
"af c #6f190a",
"df c #6f625d",
"gv c #6fa121",
"dm c #701a0c",
"ay c #701a0f",
"dV c #70a321",
"cL c #71190c",
"bv c #711a00",
"dx c #71635e",
"eq c #716457",
"ff c #71a421",
"fg c #71a521",
"cD c #731f14",
"#s c #732816",
"ck c #741b00",
"eG c #746659",
"dW c #74a822",
"bR c #751c0f",
"aG c #751e15",
"ey c #75aa23",
"gM c #76ac22",
"ed c #76ac23",
"b8 c #77797a",
"aZ c #781f13",
"dT c #7b6a62",
"c6 c #7c2015",
"b. c #7c6d67",
"#Q c #7d1f04",
"bu c #7e2000",
"aR c #7e2116",
"by c #7e4333",
"cr c #7f2116",
"cM c #7f2117",
"bx c #7f2217",
"eN c #7f7161",
"bQ c #802114",
"eu c #80706c",
"el c #817263",
"aS c #822217",
"aL c #822315",
"ak c #83220d",
"ji c #835c33",
"bc c #842311",
"bV c #848484",
"a7 c #852317",
"f6 c #85746e",
"e3 c #858585",
"#r c #862200",
"hb c #865c33",
"aa c #868686",
"aN c #878787",
"dq c #887873",
"aD c #892402",
"ae c #89250e",
"aq c #895143",
"bm c #8b7a74",
"aC c #8c5648",
"ad c #8d2600",
"bw c #8e270b",
"bO c #8f2703",
"aU c #8f7d6d",
"h0 c #906030",
"ci c #91280a",
"hh c #917e6e",
"b# c #918079",
"c. c #92807a",
"#P c #932901",
"a5 c #936153",
"ar c #942907",
"b0 c #94290a",
"iO c #946232",
"iG c #946331",
"dL c #948372",
"cO c #949595",
"#y c #952900",
"eK c #958373",
"f9 c #959594",
"bI c #96290a",
"hs c #966433",
"dQ c #96847d",
"aH c #978a79",
"ca c #979797",
"ib c #986533",
"jh c #986633",
"#t c #992b00",
"#F c #992b01",
"gY c #996533",
"gX c #996633",
"jr c #996733",
"do c #998675",
"gD c #998780",
"id c #9a6633",
"ht c #9a6733",
"dN c #9a8781",
"fm c #9a9a9a",
"#G c #9b2b01",
"#x c #9b2c01",
"ax c #9b2c03",
"ia c #9c6733",
"fR c #9c9c9c",
"aY c #9d2c01",
"#0 c #9d2d01",
"aF c #9d2d02",
"ix c #9d6934",
"b1 c #9e2d00",
"aE c #9e2d02",
"#9 c #9e2d03",
"i9 c #9e6935",
"gW c #9e6a34",
"cg c #9e8b84",
"#u c #9f2d01",
"#w c #9f2e01",
"a3 c #9f8d7b",
"e2 c #9f9f9f",
"#v c #a02e01",
"iX c #a06933",
"j. c #a06a33",
"iH c #a06a35",
"aP c #a07468",
"cu c #a08c79",
"fn c #a0a0a0",
"#J c #a12e01",
"#V c #a12f00",
"cj c #a12f01",
"aj c #a22f01",
"iI c #a36d36",
"ac c #a3776a",
"fv c #a39089",
"iJ c #a56e36",
"eQ c #a5928b",
"h7 c #a7938b",
"ex c #aa9384",
"fL c #aa968f",
"gO c #ab9687",
"ea c #ad9890",
"dZ c #ae9985",
"bo c #b09b93",
"be c #b28c81",
"cA c #b6a198",
"f5 c #baa49c",
"dv c #bca59d",
"ao c #bcbcbc",
"ct c #bdbdbe",
"gP c #bfa8a0",
"f. c #bfa993",
"ce c #c1a9a1",
"dK c #c1aa94",
"fZ c #c1aa9c",
"cs c #c2a39c",
"bC c #c2aa94",
"bn c #c3aca4",
"cQ c #c8b0a8",
"bY c #c8b1a8",
"dr c #c9b1a8",
"cf c #cab2a8",
"cR c #cab2a9",
"fj c #cbb29c",
"cz c #ccb4aa",
"h6 c #cdb5ab",
"cv c #cdb5ac",
"fM c #ceb5ac",
"cW c #ceb6ab",
"dS c #ceb6ad",
"bH c #cfb6ad",
"fO c #cfb6ae",
"bT c #d0b7ae",
"dP c #d0b8ac",
"bj c #d0b8ad",
"dd c #d0b8ae",
"d9 c #d0b8af",
"cC c #d1b7ae",
"e# c #d1b8af",
"d# c #d1b9ad",
"dz c #d3b9b0",
"dO c #d3baad",
"gE c #d3bab1",
"aB c #d4bcaf",
"bz c #d4bcb3",
"e. c #d5bcae",
"a4 c #d8beaf",
"eL c #dac0a8",
"eb c #dcc1b2",
"eE c #dcc2a9",
"d8 c #ddc2b2",
"bl c #dec6ae",
"db c #e0c6b0",
"hz c #e1c5ac",
"et c #e3c8b5",
"dc c #e4c9b6",
"cd c #e5cab7",
"bB c #e6e6e6",
"bX c #e9cdba",
"g# c #eacfba",
"d7 c #edd1b7",
"cy c #efd3b8",
"er c #f0d4b8",
"aO c #f0d4ba",
"ds c #f0d4bb",
"eM c #f2d5b9",
"eh c #f2d5bd",
"gg c #f3d5bd",
"bW c #f3d6bb",
"b9 c #f3d6bc",
"cx c #f4d7ba",
"bi c #f5d9bf",
"dJ c #f8dbc0",
"d6 c #f8dcc0",
"es c #f8dcc1",
"am c #f8f8f8",
"fu c #fcdec2",
"dw c #fddfc3",
"bD c #ffe1c4",
"cc c #ffe2c4",
"bE c #ffe2c5",
"ei c #ffe3c5",
"bF c #ffe4c6",
"bh c #ffe4c7",
"eF c #ffe6c8",
"ej c #ffe7c9",
"dt c #ffe8ca",
"dY c #ffe9cb",
"ek c #ffecce",
"dI c #ffedcd",
"gx c #fff1d2",
"an c #ffffff",
"Qt.#.a.b.c.d.e.a.f.b.g.h.i.g.j.k.a.l.m.n.e.l.o.p.f.q.g.r.s.f.t.d.r.u.b.s.i.v.w.x.y.w.r.i.z.r.#.c.A.B",
".C.a.D.E.r.o.F.G.i.A.i.H.i.I.g.f.b.o.w.h.w.v.b.J.AQt.A.f.a.K.r.L.f.G.r.c.M.g.B.o.f.N.b.C.g.I.e.o.a.I",
".f.O.M.h.fQt.q.o.H.d.m.#.M.H.P.h.s.Q.aQt.D.e.w.a.h.R.i.v.S.J.y.R.m.T.g.h.U.g.r.J.h.R.K.d.f.s.V.t.M.e",
".R.a.J.B.r.w.R.h.M.A.K.e.d.o.J.G.x.C.G.W.rQt.f.w.f.n.t.I.D.B.l.M.l.A.i.X.C.J.a.h.w.Q.A.A.w.r.Y.p.Z.#",
".r.h.s.i.A.D.o.WQt.G.0.A.a.r.X.i.M.i.h.h.h.1.i.Q.B.b.e.r.e.a.D.i.2.c.L.r.c.G.A.i.F.v.h.w.r.A.f.HQt.Z",
".H.a.3.b.l.t.b.g.t.#.a.H.m.o.e.h.b.r.A.C.M.h.J.E.F.L.g.H.4.f.5.a.b.r.r.U.i.a.6.F.l.X.a.n.j.r.H.J.f.c",
".K.i.e.r.B.Q.r.G.o.#.M.h.7.E.b.8.B.M.i.e.S.h.t.d.R.J.e.E.9.b.b.g#..c.M.r.J##.d.a.a#a.c.h.D.G.p.c.J.o",
".o#b.H.R.o.a.M.L.Q.L.K.8.M.J.f#c#d#e#f#g#f#f#h#i#j.c#k.r.eQt.r.Z.r.C.r#l.4.A.m.s#m#..c.h.R.r.r#a.b.o",
".D#n.e.h.G.h.W.t.f.o.s.L#o#p#q#r#s#t#u#v#v#v#w#x#y#z#q#A.M.#.B.f.H.8.w.r.E.a.E.a.i.d.S#b.a.h.M.s#B.o",
".H.w.H.h.A.o.F.8.s.o#C#D#E#F#v#G#H#I#v#v#v#v#v#v#v#J#x#K#L.H.a.#.s.B.R#M#b.d.R.e.C.h.k.t.f.b.J.c.6.Q",
".i.h.w.K.M.F.r.a#N#O#P#J#v#v#v#Q#R#S#T#U#v#v#v#v#v#v#v#V#q#W.m.b.A.f.a#X.J.s.I.#.A.U.2.i.D.M.u.f#b.l",
".M.F.K.Q.g.y#Y.A#Z#0#v#v#v#v#J#1#2#3#4#5#v#v#v#v#v#v#v#w#6#7.A.d.L.R.4.v.4.f.U.o.H.0.c.K.F.f.o#b.v.o",
".I.A.M.8.f.H.G.L#8#x#v#v#v#v#9a.a#aaabacad#v#v#v#v#v#vaeafag.Mah.h.R.l.y.M.f.A.r.f.f.I.R.G.F.r.g.Y#a",
".B.I.L.J.M.h.H.oai#F#v#v#vajakalamanaoapaq#K#J#v#v#Jarasatau.o.h.oQt.Z.c.d.6.L.w.f.H.c.Q.Cav.t.r.r.o",
".Z.c.d.c#Y.a.#.gaw#F#v#v#vaxayazanananaAaBaCaDaEaFaeaGaHaIaJ.A.v.#.a.B.j.o.M.r.r.D.o.b.H.a.H.o.H.r.W",
".b.M.#.r.J.h.h.faK#x#v#v#vaLaMapaNanananapaOaPaQaRaSaTaUaVaW.J.h.R.a.L.n#..D.h.D.r.M.f.E.8.l.A.c.D##",
".f.f.o.d#..E.a.aaXaY#v#v#VaZa0apa1ananana2a3a4a5a6a7a8a9b.b#.b.i.f.F.M.F.l.U.Fba.r.8.8.U.f.J.g.F.Q.w",
".r.e.b.A.c.F.f.Dbb#v#v#vbcbdbeapbfananananbgbhbibjbkblbmbnbobpbqbrbsbt.f.w.r.i.#.h.M.f.f.M.J.h.Z.Z.d",
"#b.J.w.d.A.A.J.rbubv#vbwbxbybzapbAananananbBbCbDbDbEbFbGbHbobI#vbJbKbLbM.MbN.e.F.A.W.c.G.r.H.g.g.h.a",
"Qt.#.a.b.c.d.e.abObPbQaRbRbSbTapbUananananbVbWbDbDbDbDbXbYbZb0b1#rb2b3.s.i.v.w.B.h.M.M.J.rQt.d#Y.o.o",
".r.J.Z.K.D.r.Qb4b5b6aRaRb7b8b9c.c#ananancacbccbDcdcecfcgcgchcicjckclcmcn.F.h.a.B.b.oco.Z.a.e.g.L.c.a",
".f.O.M.h.fQt.qawcpcqaRcrcsctcucvcwanananapcxcybFczcAcBcCbAcDaFadcEcFcGcH.U.g.hcI.K.d.L.h.c.F.t.h.R.B",
".R.a.J.B.r.w.RcJcKcLcMcNapcOcPcQcRcScTcUbFcVbFcWcRcXcYapcZc0c1c2c3.A.i.X.C.J.d.f.o.m.a.r.n.p#..D.e.a",
".Q.F.r.t.g.h.U.fc4c5c6c7c8c9d.cQd#bEbhbhdadbdcdddedfdgdhdidj.w.Mdk.s.J#m#b.c.i.o.s.L.h.A#b.y.h.g.f#X",
".H.a.3.b.l.t.b.g.tdldmdndodpdqdrdsbDdtdudvdwcRdxdydzapdAdBdCapdidD.r.r.U.i.a.f.p.h.d.6.d.o.b.C.h.M.s",
".a.G.e.v.M.o.r.Q.ddEdFdGdHdIdJdKdLdMdNbTdOdPdQdRdSdTdUdVdWdXbDdYdZapd0d1.V.e.l.F.l.w.G.D.d.8.L.h.R.A",
".o#b.H.R.o.a.M.L.Q.Ld2d3d4d5d6d7d8d9cRcRe.e#apeaebecedeeefegeheiejekelapem.A.U.q.H.HbN.h.r.f.D.h.d.C",
".D#n.e.h.G.h.W.t.f.oeneoapepcbeqerbEeseteuapevewexeyezeAeBapeCeDapeEeFeGeH.a.o.r.H.i.W.u.M.JQt.J.M.b",
".H.h.w.C.M.h.h.oeIeJeKeLapbDeMeNeOePeQeReSeTeUeVeWdVeXeYeZe0e1ape2e3e4e5e6.#.H.t.3.M.T.J.o.A.M.o.H.N",
".i.h.w.K.M.F.r.ae7e8cccce9bDf.f#fafbfcfd.8fefffgfffhfifjapfkfkfaflfmfnapfo.s.c.a.l.bQt.H.G.Hfp.f.f.h",
".L.D.h.d.D.a.o.T#YfqfrfsftfufvfwfxfyfzapfAfBdVfCfDfEapfFfGfHfkfkfkapfIfJfK.r.G.r.f.AQt.M.S.I.r.U.b.a",
".I.A.M.8.f.H.G.L.r.bfLfMfNfOfPfQfQbAfRapfSfTfUevfVfWfXfafYfZf0fkfkf1apf2f3.f.n.D.l.b.t.f.t.g.f.a.f.h",
".B.I.L.J.M.h.H.o.s.Bf4f5cRf6f7fQfQf8f9g.g#gafcgbgcgdgefkfkgfggghfkgiap.c.d.6.r.G.s.K.D.o.f.D.K.J.C.e",
".r.U.p.C.Q.c.h.b.X.ygjgkglgmgngofQgpgqgrgsgtgugvgwgxgyf1fkfkgzgAf1apgB.g.b.i.I.R.R.hQt.D.r.o.w.r.o.Z",
".b.M.#.r.J.h.h.f.I.bgCgDgEgFapapgGgHapgIgJgKgLgMgNgOgPgQgRgSfkfagTgU.L.n#..D.W.rQt.B.D.f.o.t.M.F.B.i",
".g.g.a.M.r.r#B.L.p.e.hgVapgWgXgXgYgZg0.Rg1g2g3g4g5g6g7g6g8g9fQgGh..t.d#Y#m.r.t.hh#.t.r.o#..T.r.o.c.v",
".r.e.b.A.c.F.f.D.b.a.rhafahbgXgXgXhc.b.uhdhehfhghhhihjhkhlhmaphnho.a.Q.f.w.r.C.c.h.b.G.F.n.g.t.b.f.B",
"#b.J.w.d.A.A.J.r.U.J.thphqhrhsgXgXhthuhvhwg.hxhyhzhAhjhBhChDaphEhF.a.g.H.MbN.D.y.r.v.MhG.v.m.d.o.a.Q",
"Qt.#.a.b.c.d.e.a.f.b.ghHhIhJhKgXgXgXhLhMgXhNhOhPhQhRhShThUapaphVhu.u.b.s.i.v.K.e.HhW.l.8.e.m.J.M.y.H",
".C.a.D.E.r.o.F.G.i.A.i.HhXhYhZgXgXgXh0h1gXh2hmh3h4h5apbYh6h7h8hxdHh9.r.c.M.g.c.t.a.hhW.m.E.a.f##.#.m",
".f.O.M.h.fQt.q.o.H.d.m.#.Mi.i#hKiagXibicidieifigihiiijikilg2iminioipiqapgZfbir.I.D.C.t.o.r.b.f.m.H.w",
".T.F.D.r.H#Y.S.c.D.r.g.SisitiuiviwgXgXixiyiziAapfy.diBapiCiDiEiFiGhtiHiIiJiKiL.o.w.K.h.c.a.M#a.t.o.S",
".r.h.s.i.A.D.o.WQt.G.0.A.a.riMbUiNgXiOhNiPiQ.i.Q.B.biRiSgHiTiUiViWh0ibgXiXiYiZi0.C.d.c.v.CQt#Y.ei1.E",
".H.a.3.b.l.t.b.g.t.#.a.H.m.o.ei2gui3i4i5.M.h.J.E.F.L.gi6i7i8i9i9ixixi9gXj.j#jajb.h.K.g#a.a.8.E.l.D.M",
".K.i.e.r.B.Q.r.G.o.#.M.h.7.E.bjcjdjejf.e.S.h.t.d.R.J.e.EjgjhgXgXgXgXgXgXjijjjk.b.D.J.d.H.h.c.s.o.A.f",
".o#b.H.R.o.a.M.L.Q.L.K.8.M.J.f.Rjlfc.w.d.K.e.H.i.o.c#k.rjmjnjojpjqjrgXgXjshYjtju.d.Cjv.D.r.D.X.g.h.a",
".X.A#..w.L.S.F.#.#.I.J.r.l.t.h.p.M.K.D.w.s.y.J.B.i.U.r.ljwjxjyjyjyjyjzjAj#jBjC.f.E.r.D.Q.Dba.I.G.s.M",
".H.w.H.h.A.o.F.8.s.o.U.a.s.Q.f.Xba.r.h.X.b.K.s.M.X.D.0.t.SjDgGjEg9jFjGjHjIjJ.R.o.x.MjK.W.A.a.p.h.c.b",
".i.h.w.K.M.F.r.a#a.B.R.QjL.o.M.Z.oQt.b.c.8.w.H.h.c.B.M.K.D.o.m.b.A.f.a#X.J.s.o.X.h.t.c.D.o.R.Y.h.m.b",
".M.F.K.Q.g.y#Y.A.Y.A.s.X.H.H.n.B.a.r.m.a.K.w.b.c.A.i.rhW.A.Z.A.d.L.R.4.v.4.f.i.L.T.dh#.h.t.i.U.H.r#B"};
