/* XPM */
static char *dummy[]={
"50 50 634 2",
"hd c #007d00",
"#l c #038300",
"#8 c #048a01",
"hy c #049e00",
"hD c #069201",
"eH c #06a101",
"#S c #0c8502",
".l c #0c8b02",
"fd c #0d8b02",
"aK c #0d8b03",
"ae c #0d9202",
"#5 c #0d9b02",
".x c #148304",
".v c #148c04",
".I c #149304",
".V c #159a04",
".J c #168c05",
"#T c #16a105",
"#V c #1b8d06",
"#7 c #1c8607",
".5 c #1c9406",
".d c #1c9b06",
".p c #1ca306",
"gT c #1d9906",
".9 c #1da907",
"c7 c #1f510b",
"an c #1f8e08",
".R c #1f9308",
"bP c #20560c",
"gt c #20570c",
"dL c #209908",
"bj c #209a08",
"b3 c #21540c",
"bT c #21560c",
"d0 c #21570c",
"bO c #21590d",
"fh c #215a0d",
"gy c #215b0d",
".# c #218e07",
"el c #21a907",
"bU c #22570c",
"fw c #22570d",
"bW c #22590c",
"fU c #22590d",
"b7 c #225b0d",
"cL c #22620d",
".t c #229407",
"d8 c #229b07",
".i c #229c07",
".n c #22a407",
"ef c #23590c",
"fg c #23590e",
"ex c #238507",
".T c #238d08",
"fB c #244d0a",
"e0 c #244e0b",
"a7 c #245a0d",
"b9 c #245b0d",
"eq c #245b0e",
"#f c #245d0d",
"c4 c #254d0a",
"c5 c #254e0b",
"b5 c #25560c",
"dH c #255d0e",
"h2 c #259109",
".A c #259408",
"fL c #259a08",
".Q c #259b08",
"bN c #264709",
"cO c #264c0a",
"bM c #265a0e",
"gh c #265e0e",
"#p c #265f0e",
"gK c #268108",
"hh c #268509",
".G c #26a308",
"hc c #26aa08",
"gR c #271101",
"b6 c #274909",
"cn c #27530c",
"hU c #275a0e",
"ct c #275e10",
"c3 c #27630d",
"cD c #27630f",
"dS c #278006",
"#g c #279209",
"f1 c #279d08",
"gL c #28530c",
"cl c #285f10",
"ee c #28600f",
"a6 c #286010",
"fC c #286210",
"hr c #287204",
"de c #28910b",
"eF c #294509",
"gr c #29670f",
"cA c #296710",
"b8 c #2a4909",
"hG c #2a5f0a",
"cm c #2a5f0f",
"cN c #2a5f10",
"gz c #2a6210",
"h1 c #2a6310",
"bC c #2a6311",
"#v c #2a6312",
"eD c #2a6411",
"bv c #2a650f",
"fM c #2a6511",
"hY c #2a7a0d",
"gC c #2a7d0e",
"e1 c #2b3f08",
"hT c #2b510c",
"gX c #2b590c",
"hi c #2b6103",
"br c #2b6512",
"#u c #2b6513",
"hP c #2b6610",
"fq c #2b6611",
"aM c #2b6612",
"cP c #2b6712",
"hF c #2b8f0a",
"gP c #2b910a",
"hX c #2b920b",
".b c #2b940a",
"c6 c #2c590e",
"db c #2c6612",
"h0 c #2c6712",
"#0 c #2c6713",
"hu c #2c7406",
".7 c #2c8e0a",
"ds c #2c910a",
"ff c #2c980a",
".o c #2c9b0a",
".c c #2ca30a",
"Qt c #2cab0a",
"bJ c #2d6712",
"e2 c #2d6911",
"d3 c #2d7610",
"hE c #2db409",
"gq c #2e1501",
"bS c #2e3306",
"eZ c #2e3507",
"gM c #2e3e08",
"dE c #2e3f08",
"gi c #2e6311",
"hZ c #2e6a13",
"a8 c #2e6b14",
"hR c #2e6d13",
"eR c #2e740f",
"gl c #2e7d0f",
".q c #2e8c0f",
"hm c #2ebb0b",
"h. c #2f1501",
"gD c #2f6906",
"a4 c #2f6a13",
"er c #2f6b12",
"hV c #2f6b13",
"eg c #2f6d13",
"fQ c #2f910f",
".K c #2f920d",
"eO c #2f990d",
"df c #2fa508",
"ge c #301601",
"ck c #303707",
"bF c #306a13",
"#o c #306c13",
"#B c #306d13",
".L c #308b11",
"hQ c #31590e",
"gN c #316d13",
"dO c #316d14",
"c. c #316e13",
"dm c #316e14",
"#t c #316e15",
"#e c #317014",
"eG c #317115",
"cB c #31850e",
"gG c #321801",
"dZ c #326e14",
"f# c #326e15",
"eS c #327014",
"eY c #327015",
"#E c #327114",
"hM c #32920d",
".F c #32950c",
"es c #329a0d",
"he c #334503",
"bl c #337015",
"gB c #337214",
"gI c #33900b",
"ez c #33960f",
"gg c #33990d",
".a c #339c0c",
"gm c #33b80b",
"g2 c #341801",
"fF c #346707",
"#w c #347013",
"aj c #347115",
"bR c #347215",
"gk c #347216",
"#r c #34870d",
"#i c #348d0d",
"fp c #349408",
"cG c #34a10d",
".h c #34a30c",
".P c #34ab0c",
".y c #34b30c",
"hb c #351901",
"bQ c #352603",
"dF c #353d07",
"#C c #357215",
"b0 c #357415",
"eP c #357b15",
"dA c #359d0b",
"b2 c #363006",
"ep c #367115",
"f. c #367213",
"be c #367214",
"aT c #367415",
"bY c #367516",
"d6 c #367616",
"eQ c #367b12",
"g3 c #371b01",
"dG c #372a04",
"dU c #375304",
"h3 c #377111",
"eX c #377210",
"#1 c #377515",
"#J c #377516",
"#D c #377716",
"ba c #377717",
"fO c #377718",
"dM c #377818",
"cp c #37820e",
"aZ c #379a0e",
"bV c #381b01",
"fA c #381e01",
"gx c #387107",
"as c #387717",
"#n c #387817",
"#x c #387818",
"ax c #387917",
"c8 c #387918",
"cE c #388710",
"#H c #388814",
"hW c #389f0f",
"fJ c #391c01",
"fk c #394a05",
"d5 c #397713",
"bu c #397817",
"d1 c #397818",
"fr c #397916",
".M c #397917",
"a# c #397918",
"bE c #397a16",
"aN c #397a17",
"f2 c #397a18",
"cM c #397b17",
".3 c #397c17",
"do c #397c18",
"e9 c #398216",
".W c #398517",
"eV c #398f12",
"f6 c #39950f",
"cy c #399b11",
"hg c #3a1e01",
"cW c #3a7917",
"eU c #3a7918",
"fz c #3a7a16",
"#I c #3a7a17",
"a5 c #3a7a18",
".N c #3a7b17",
"aU c #3a7b18",
"ao c #3a7c16",
"bh c #3a7c18",
"b# c #3a8815",
"ei c #3a8c16",
"dQ c #3a9d0e",
"hf c #3b1e01",
"eI c #3b2b02",
"aF c #3b7a16",
"aI c #3b7b16",
"bZ c #3b7b17",
"#d c #3b7b18",
"eE c #3b7c18",
"bk c #3b7d18",
"cf c #3b7e18",
".s c #3b950e",
".D c #3b9d0e",
"c0 c #3ba00c",
".r c #3ba30e",
"g. c #3ba30f",
".f c #3bab0d",
"cJ c #3c1e01",
"en c #3c7b16",
"bH c #3c7c15",
"bo c #3c7c16",
"gO c #3c7d19",
"fv c #3c7e18",
"#W c #3c7f18",
"cg c #3c8118",
"#q c #3c8d0f",
"fY c #3c900c",
"gf c #3c910d",
"hK c #3c9511",
"aL c #3ca90e",
"e8 c #3cad0e",
".m c #3cb20e",
"g9 c #3d1f02",
"fE c #3d3f03",
"ca c #3d7c16",
".2 c #3d7d15",
"a0 c #3d7d17",
"aP c #3d7e15",
"f7 c #3d801a",
"cv c #3d8117",
"#Q c #3d8119",
"fR c #3d8518",
"ed c #3d8913",
"eA c #3d8e14",
"c9 c #3d8f19",
"af c #3d9311",
"fD c #3db90d",
"gs c #3e1f01",
"cr c #3e5d07",
"fW c #3e6007",
"d4 c #3e7f15",
"bw c #3e8019",
"d. c #3e8116",
"gv c #3e811a",
"aw c #3e9112",
".j c #3ea210",
"f9 c #3ea312",
"hj c #3f2202",
"dl c #3f5c09",
"bD c #3f7e10",
"em c #3f7e12",
"bB c #3f7f14",
"al c #3f8014",
"#O c #3f8015",
"cS c #3f8019",
"bx c #3f811a",
"ch c #3f8718",
"cz c #3f8c17",
"dd c #3f9615",
"#F c #3f9c10",
"dn c #402804",
"fo c #403003",
"eB c #408014",
"fs c #408113",
"cd c #408114",
"cj c #412d04",
"e. c #413c03",
"ha c #413c05",
"e3 c #413d04",
"aX c #418113",
"#N c #418114",
"#c c #418214",
"b1 c #418315",
"eh c #41841b",
"#. c #418515",
"ci c #418916",
"dq c #41891c",
"at c #419118",
"hL c #419511",
".u c #419b0f",
".g c #41a40f",
".e c #41ab0f",
"e7 c #422302",
"gn c #424305",
"cY c #425605",
"fa c #427f09",
"aD c #428213",
"d2 c #42841b",
"d# c #428515",
"f8 c #42851c",
"aB c #429116",
"#s c #429f14",
".8 c #42b30f",
"gw c #432403",
"dk c #436e09",
"hz c #437a0b",
"gA c #438210",
"dt c #438313",
"cb c #438314",
"cu c #438419",
"aV c #438512",
"#K c #438513",
"fc c #438613",
"aA c #43861c",
"ac c #43871c",
"g0 c #438d1d",
"bK c #438e18",
"dK c #439318",
"av c #439c10",
"bi c #43a311",
"e5 c #442202",
"dX c #444904",
"dD c #444a06",
"di c #445707",
"cq c #446d0a",
"aO c #448513",
"b. c #448614",
"hO c #44a310",
".w c #44a410",
"au c #44ba0f",
"eL c #452302",
"c2 c #452402",
"gS c #452503",
"cC c #452a04",
"dh c #452d03",
"e6 c #453104",
"eu c #456109",
"cc c #458513",
"cx c #458712",
"gY c #458d1a",
"ga c #45970e",
"cs c #459712",
".B c #45ab10",
".O c #45b310",
"hC c #462603",
"fK c #46750a",
"dN c #468612",
"dw c #468913",
"gZ c #46891e",
"aJ c #468b1d",
"dP c #469118",
"hq c #46bc10",
"g8 c #472703",
"fI c #472803",
"gF c #472804",
"hS c #474108",
"bG c #478812",
"aH c #478911",
"bg c #478912",
"am c #478d1d",
".4 c #47b012",
"h# c #482703",
"dV c #482803",
"d9 c #482903",
"fn c #482904",
"g7 c #482b03",
"fV c #483504",
"dy c #485708",
"cH c #48710b",
"hn c #487b0c",
"aS c #488910",
"a1 c #488911",
"ej c #48911c",
"#G c #489212",
"hx c #492803",
"et c #492903",
"dW c #492904",
"cX c #492a04",
"dY c #493605",
"fe c #497515",
"#P c #498a11",
"fj c #4a2903",
"dg c #4a2a04",
"ea c #4a2c04",
"eb c #4a3204",
"ek c #4aa413",
".6 c #4aa511",
"e# c #4b2903",
"c1 c #4b2a04",
"gU c #4b2b04",
"dx c #4b2d04",
"eT c #4b890a",
"#X c #4b8c0e",
".X c #4b8c10",
"bm c #4b8d10",
"cT c #4b8f12",
"dC c #4baa11",
".H c #4bab11",
".E c #4bb212",
"cK c #4bb912",
"ad c #4bba12",
"dT c #4c2a03",
"gH c #4c2a04",
"eM c #4c2b04",
"hk c #4c2c04",
"dR c #4c3303",
"#9 c #4c8d10",
"bA c #4c8e0d",
"dp c #4c8e0e",
"aE c #4c8e10",
"g6 c #4c9c13",
"co c #4d2904",
"hl c #4d2a03",
"cZ c #4d2b04",
"ew c #4d2c04",
"cQ c #4d8e0e",
"bz c #4d8f0d",
"g4 c #4e2d04",
"eK c #4e2e04",
"gj c #4e8f0b",
"aC c #4e900d",
"dI c #4e900e",
"#a c #4e9310",
"gb c #4f2e04",
"dz c #4f3404",
"hN c #4f8c14",
"dB c #502e04",
"hJ c #503004",
"aR c #50910c",
"#L c #50910d",
"dv c #50920c",
"eo c #50920d",
"b4 c #512a04",
"cF c #512e04",
"dj c #512f04",
"fX c #513004",
".Y c #51930c",
"bb c #51940c",
"dr c #51a319",
"gc c #523004",
"fm c #523104",
"gW c #523305",
"bd c #52940b",
"az c #52940c",
"bq c #52950c",
".C c #52ac13",
"fi c #533005",
"cI c #533104",
"ce c #53a219",
"#h c #53a613",
"#j c #53b313",
"ev c #543004",
"d7 c #543104",
"gQ c #543105",
"gd c #543205",
"bc c #54950b",
"#Y c #54950c",
"bf c #54950e",
"by c #54960a",
"fS c #54960b",
"bL c #54960c",
".k c #549b16",
"#k c #54bb13",
"fZ c #553204",
"gJ c #553205",
"gE c #553305",
"g5 c #553a05",
"#m c #55960a",
".0 c #55960b",
"bs c #55960c",
"#2 c #55970a",
"#b c #55970b",
"aG c #55990b",
".U c #55c114",
".S c #55cc13",
"hp c #563404",
"gp c #563405",
"aa c #56970b",
"a3 c #569909",
"#y c #56990a",
".Z c #56990b",
".1 c #56990c",
"ec c #573304",
"fH c #573505",
"#Z c #57990a",
"eW c #57990b",
"#z c #57990c",
"dc c #579b0b",
"ey c #583505",
"g# c #58ab15",
"hv c #593505",
"hs c #593605",
"ho c #593705",
"ah c #59990d",
"## c #599b0c",
"ak c #599b0d",
"#4 c #599c0c",
"#6 c #59ad16",
"eJ c #5a3705",
"fT c #5a9c0d",
"fy c #5a9c0e",
"cV c #5a9c10",
".z c #5ac116",
"hw c #5b3705",
"go c #5b3805",
"aQ c #5b9c0e",
"bn c #5b9c10",
"#R c #5bb316",
"#U c #5bbc15",
"gV c #5c3705",
"eN c #5d3805",
"#M c #5d9e10",
"aW c #5d9f10",
"eC c #5d9f11",
"hH c #5e3705",
"fG c #5e3a06",
"f4 c #5e9f12",
"hB c #5f3b06",
"f0 c #5f3e05",
"ab c #5fa013",
"da c #60a113",
"cU c #60a213",
"g1 c #60b417",
"e4 c #613c06",
"ai c #61a213",
"bt c #61a214",
"ht c #623d06",
"fu c #63a415",
"fN c #63a419",
"bX c #63a515",
"cw c #64a515",
"dJ c #64a516",
"du c #65a515",
"gu c #65a715",
"bI c #65a717",
"hI c #663d06",
"aq c #66a718",
"fl c #674107",
"hA c #674207",
"f3 c #67a818",
"a2 c #69a819",
"fP c #6aab19",
"ft c #6aab1b",
"cR c #6cab1b",
"aY c #6dc219",
"ag c #6eaf1e",
"ap c #70b11f",
"a9 c #71b11f",
"f5 c #72b220",
"bp c #72b321",
"ar c #74b521",
"#3 c #75b522",
"c# c #75b623",
"a. c #77b624",
"fb c #78b624",
"#A c #78b824",
"ay c #79b925",
"fx c #7ab925",
"Qt.#.a.b.c.d.e.a.f.b.g.h.i.g.j.k.a.l.m.n.e.l.o.p.f.q.g.r.s.f.t.d.r.u.b.s.i.v.w.x.y.w.r.i.z.r.#.c.A.B",
".C.a.D.E.r.o.F.G.i.A.i.H.i.I.g.f.b.o.w.h.w.J.K.L.M.M.N.f.a.O.r.P.f.G.r.c.Q.g.B.o.f.R.b.C.g.I.e.o.a.I",
".f.S.Q.h.fQt.T.o.H.d.m.#.Q.H.U.h.s.V.a.W.M.X.Y.Z.0.1.2.3.4.5.y.6.m.7.g.h.8.g.r.5.h.6.O.d.f.s.9.t.Q.e",
".6.a.5.B.r.w.6.h.Q.A.O.e.d.o.5#.###a.M.M.Z#b#b#b#b#b.Z#c#d#e#f#g.l.A.i#h.C.5.a.h.w.V.A.A.w.r#i.p#j.#",
".r.h.s.i.A.D.o#kQt.G#l.A.a.r#h.Z#b#b#b.2.Z#b#b#b#b#m#b#b#n.M#o#p#q.c.P.r.c.G.A.i.F.v.h.w.r.A.f.HQt#j",
".H.a#r.b.l.t.b.g.t.#.a.H.m.o#s#t#u#v#w.M#x#y#b#z#m#A#m#y#B#C#D#E.b.r.r.8.i.a#F.F.l#h.a.n.j.r.H.5.f.c",
".O.i.e.r.B.V.r.G.o.#.Q.h#G.E#H.M.M.M#I#J.M#K#L#b.Z#M#N#O#I#L#P#Q#R.c.Q.r.5#S.d.a.a#T.c.h.D.G.p.c.5.o",
".o#U.H.6.o.a.Q.P.V.P.O#V.Q#W#L#X#x#Y#Z#I#x#x.M#n.M#0#1.2#2#3#4#x.M.C.r#5#6.A.m.s#7#R.c.h.6.r.r#T.b.o",
".D#8.e.h.G.h#k.t.f.o.s.P.m#9#ma.#m#b#b#b#b#b#b#Ja#.Z.Zaa#b#bab#4.Mac.w.r.E.a.E.a.i.dad#U.a.h.Q.sae.o",
".H.w.H.h.A.o.F#V.s.o.8.aaf#y#b#m#b#b#bag#bahaiaj#I#b#b#b#b#bak#balam.6an#U.d.6.e.C.h.k.t.f.b.5.c#F.V",
".i.h.w.O.Q.F.r.a#T.B.6ao#y#b#b#b#bap#b#b#baqar#xas#b#b#b#b#b#b#b#xat.aau.5.s.I.#.A.8#q.i.D.Q.u.f#U.l",
".Q.F.O.V.g.yav.A#i.Aawax#b#b#b#b#bay#2.Z#b#b#2.M#n.Zaz#b#b#b#b#b.2aA#6.v#6.f.8.o.H#l.c.O.F.f.o#U.v.o",
".I.A.Q#V.f.H.G.P.r.baBaC#b#b#b#K.M.M.M#naDaEax.M.M.M.M#naFaGaHaI.MaJaK.y.QaL.A.r.f.f.I.6.G.F.r.g#i#T",
".B.I.P.5.Q.h.H.o.s.B.gaM#b#baIaN.2aOaPaQ#3aR.ZaS#N.M.MaT#C#D.M.M#I#1.M.MaU#ZaVaWaX.N.c.V.CaY.t.r.r.o",
"#j.c.d.cav.a.#.g.c.gaZa0#b#x#Ca1#b#2#2#b#M#b#ba2a3.M.M.2aIa4a5a6a7a8#t#I#x#b#ba9aRb..b.H.a.H.o.H.r#k",
".b.Q.#.r.5.h.h.f.I.bb#.M#N#J.MaH#b#b#b#b#b#m#z#baXbabbbcbdbe#na6bfag#y#n#Jbg#b#b#2#Ybhbi#V.l.A.c.D#S",
".f.f.o.d#R.E.a.a.Q.wbjbk.Mblbm#b#b#b#zbn#maya.bo#n#y#b#bbpbq#Ibrak#mak#2bs.M#b#bbtbnbuaNbv.5.g.F.V.w",
".r.e.b.A.c.F.f.D.b.a.r.PbwbxaE#b#baEbybz#JbAbBbC#n.0bDaDbEa5bF#IbG#b#m#b#bbH#Z#2bI.Y#I.MbJ.5.h#j#j.d",
"#U.5.w.d.A.A.5.r.8.5.t.a.T.rbK#nbHbLbMbNbObPbQbRbSbTbUbUbVbW#I.M#X#bbX#b#b.M.M.MbYbRbZ.Mb0.H.g.g.h.a",
"Qt.#.a.b.c.d.e.a.f.b.g.h.i.g.jb1#b#Yb2bTb3.Mb4aNb5b6bUb7b8b9c.#I#n#Mc##2#Z.M.M#Icacbcccd.NQt.dav.o.o",
".r.5#j.O.D.r.V.7.O.5.bcecfcgchcicfbTb9cjckclcmcnb9cocpcqcrcs.M#Ictbo.2.M.M.MbHaN#y#b#b.Xcu.e.g.P.c.a",
".f.S.Q.h.fQt.T.o.H.d.mcvcw#ycxcyczcAcBQtcCcDcEcFcGcHcIcJcKcLcMcNcOcP.M.McQaRcR.0#b#b#b#ycS.F.t.h.6.B",
".6.a.5.B.r.w.6.h.QcTbs#bcUcVc#aO#IcW.G#kcXcY.fcZc0.nc1c2.Dc3c4c5c6c7#oa##y#b#m#b#z#mc#c8c9.p#R.D.e.a",
".V.F.r.t.g.h.8d.d##y#b.1#b#bdadbdcb0dddedfdg#Vdhdi.fdjdk.F.cdlcFa4dmdndoa1#Y#b#bdpcdbkdqdr.y.h.g.fau",
".H.a#r.b.l.tds.Z#b#b#b#b#baDdtctdudv#ydw.Qdx.5dydzdAdBdC#6.fdDdEbUdFdGdH#n#ndIdJ.X.NdKdL.o.b.C.h.Q.s",
".a.G.e.v.Q.o.rdM#b.Z#b#bdN.MdO#b#2#m#b#bdPdQdRdSdTdUdV.H.6.adWdXdYbWdZd0bF.MaNd1#Wd2.G.D.d#V.P.h.6.A",
".o#U.H.6.o.ad3.Md4#naXd4aF.Mbubyay#b.Zd5d6.ed7d8d9e.e#.r.eQteaebeceda7eeefegeheiejekel.h.r.f.D.h.d.C",
".D#8.e.h.G.h#k#O#bemahbtazeneo#n.NepdHeqereseteuevewet.a.QexdBey.H#V.w.r.Eez.o.r.H.i#k.u.Q.5Qt.5.Q.b",
".H.h.w.C.QeAeBeC.XeDak#3aq#b#bboeEeFeG#BeH.DeIeJeKeKeL.t.heMeN.QeOePeQeReSeTeU.t#r.Q.7.5.o.A.Q.o.H.R",
".i.h.w.O.QeV.MeWboeX#b#b#b#b#PeYeZe0e1e2#V.we3e4eKc1e5.Oe6e7e8.be9.Mf.f#fafbaVfcfd.bQt.H.G.Hfe.f.f.h",
".P.D.h.d.D.affeS#d.M.Z#m#b.Z.Zfg#Jfhfifj.Q.Cfkflfmfne7fodBfp.cfqfrfs#b#mftfu#b#bdtfvQt.Qad.I.r.8.b.a",
".I.A.Q#V.f.H.G.Pfwax##fxfybHfzfAfBfCfDetfE.sfFfGfHfIfJeNfK.bfLfMfNfO#y#b#b#b#b#bfP#nfQ.f.t.g.f.a.f.h",
".B.I.P.5.Q.h.H.o.sfRfSfTcf#Ja7bkfUfjfVfWfXeNfYfZewfJeKf0f1#Bdbf2#bf3aldM#Z.Zf4f5#ceSf6.o.f.D.O.5.C.e",
".r.8.p.C.V.c.h.b#h.yf7f8f9g..rg##7.s.agagbgceKgdeKgeeKgfggghe0gidNaGboaSgjgkaCeBeEglQt.D.r.o.w.r.o#j",
".b.Q.#.r.5.h.h.f.I.b.o.6.a.f.D.H.bgm.E.6.egngogpeKgqcZ.i.Vgrgsgt.MaP#b#mfxguaj.M#Igv.D.f.o.t.Q.F.B.i",
".g.g.a.Q.r.rae.P.p.e.h#k#i.P.a.v.P.g.a.6.o.xgwgpcXgecZ.a.tgxgybCgzfO#y#b#b#mgA.MgBgC.r.o#R.7.r.o.c.v",
".r.e.b.A.c.F.f.D.b.a.r.P.h.w.P.s.h.s.b.u.Q#kgDgEgFgGgH.QgIgJgKgLgM.MeBaH#ydNaNgNgOgP.G.F.n.g.t.b.f.B",
"#U.5.w.d.A.A.5.r.8.5.t.a.T.r.O#j.A.d.r.i.f.7adgQcXgRgSgTdjgUgVgWgXbUajgYgZg0.D.y.r.v.Qg1.v.m.d.o.a.V",
"Qt.#.a.b.c.d.e.a.f.b.g.h.i.g.j.k.a.l.m.n.e.l.ofXfng2g3g4g5.f.t.d.r.u.b.s.i.v.O.e.Hg6.l#V.e.m.5.Q.y.H",
".C.a.D.E.r.o.F.G.i.A.i.H.i.I.g.f.b.o.w.h.w.v.bg7g8g9h.h#.a.O.r.P.f.G.r.c.Q.g.c.t.a.hg6.m.E.a.f#S.#.m",
".f.S.Q.h.fQt.T.o.H.d.m.#.Q.H.U.h.s.V.aQt.D.e.whac1g9hbdjad.5.y.6.m.7.g.h.8.g.w.I.D.C.t.o.r.b.f.m.H.w",
".7.F.D.r.Havad.c.D.r.gadhc.a.5.bhd#k.P.Q.D.c.OhegEhfhgdj.6fD.a.a.i.t.A#U.u.Q.c.o.w.O.h.c.a.Q#T.t.oad",
".r.h.s.i.A.D.o#kQt.G#l.A.a.r#h.i.Q.i.h.h.hhh.ihigEhjhkhl.e.a.D.i#q.c.P.r.c.G.h.h.C.d.c.v.CQtav.ehm.E",
".H.a#r.b.l.t.b.g.t.#.a.H.m.o.e.h.b.r.A.C.Q.h.5hnhohpeJdT#6.fhq.a.b.r.r.8.i.a#T.G.h.O.g#T.a#V.E.l.D.Q",
".O.i.e.r.B.V.r.G.o.#.Q.h#G.E.b#V.B.Q.i.ead.h.thrhshthoc1fD.b.b.g#R.c.Q.r.5#S.a.b.D.5.d.H.h.c.s.o.A.f",
".o#U.H.6.o.a.Q.P.V.P.O#V.Q.5.f.6.a.v.w.d.O.e.Hhuhvhthwhx.eQt.r#j.r.C.r#5#6.A.B.a.d.Chy.D.r.D#h.g.h.a",
"#h.A#R.w.Pad.F.#.#.I.5.r.l.t.h.p.Q.O.D.w.s.y.5hzfGhAhBhC.c.A.5.h.chD#F.a.h.r.6.f.E.r.D.V.DhE.I.G.s.Q",
".H.w.H.h.A.o.F#V.s.o.8.a.s.V.f#hhE.r.h#hhF.O.shGhHhIhJcChKhLhM.#.s.B.6an#U.d.6.o.x.QhN#k.A.a.p.h.c.b",
".i.h.w.O.Q.F.r.a#T.B.6.VhD.o.Q#j.oQt.b.c#VhOhPhQhRhShThUa4hVhWhX.A.f.aau.5.s.o#h.h.t.c.D.o.6#i.h.m.b",
".Q.F.O.V.g.yav.A#i.A.s#h.H.H.n.B.a.r.m.a.O.whYfqaxhZh0h1dHfCh2.d.P.6#6.v#6.f.i.P.7.dh3.h.t.i.8.H.rae"};
