/* XPM */
static char *dummy[]={
"32 32 8 1",
"a c #141b1b",
"f c #4a7f4b",
"# c #74a334",
"c c #8f3e56",
". c #adbc3a",
"b c #e0394c",
"e c #ffad5d",
"d c #ffe18d",
"..#..........................#..",
"................................",
"................................",
"................................",
"....#...............#...........",
".....#...............#..........",
"................................",
"................................",
"..........#...............#.....",
".........#...............#......",
".........aaaaaaaaaaaaaa.........",
".........abbbbbbbbbbbca.........",
".........abddbbbbbbbbca.........",
"........aabbbbbbbbbbbcaa........",
"........aebbbbbbbbbbbcba........",
"........aebbbccccccbbcba........",
"........adccccdeeeccccba........",
"........adeeeeeaaeeeeeea........",
"........aacccceeeeccccaa........",
".........abbbccccccccca.........",
".........abbbbbbbbbbbca.........",
".........aaaaaaaaaaaaaa.........",
"................................",
"................................",
".....#....................#.....",
"......#..................#......",
"#..............................#",
"##............................##",
"##............................##",
"f#............................#f",
"................................",
"................................"};
