/* XPM */
static char *dummy[]={
"32 32 8 1",
"a c #141b1b",
"f c #4a7f4b",
"# c #74a334",
". c #adbc3a",
"e c #d14b34",
"d c #e46d3a",
"b c #f2eaf1",
"c c #ffad5d",
"..#..........................#..",
"................................",
"................................",
"................................",
"....#...............#...........",
".....#...............#..........",
"................................",
"................................",
"..........#...............#.....",
".........#...............#......",
"................................",
"................................",
"................................",
"............aaaa................",
"...........abbccaaa.aa..........",
"..........acbcccdacaca..........",
"..........acdeeddddeca..........",
"..........acdeecddddda..........",
"..........adddccdaaaaa..........",
"...........adddda...............",
"...........#aaaa....#...........",
"..........#..........#..........",
"................................",
"................................",
".....#....................#.....",
"......#..................#......",
"#..............................#",
"##............................##",
"##............................##",
"f#............................#f",
"................................",
"................................"};
