/* XPM */
static char *dummy[]={
"32 32 11 1",
"a c #141b1b",
"c c #3b3643",
"i c #4a7f4b",
"b c #4e484a",
"g c #548789",
"# c #74a334",
"f c #79b8ce",
"h c #9ba7aa",
". c #adbc3a",
"d c #d14b34",
"e c #ef914f",
"..#..........................#..",
"................................",
"................................",
"................................",
"....#...............#...........",
".....#...............#..........",
"................................",
"................................",
"..........#.aaaaa..aaa....#.....",
".........#aabbbbbaaccca..#......",
".........abbbbbbbccacca.........",
"........accbbbbbccccaca.........",
"........acccccccccccca..........",
".........accddccccccca..........",
"........accdaaccccccca..........",
".........aeaeecddcccca..........",
".........aeeeeeddccca...........",
".........addeeeeccaa............",
"..........aeeddfffa.............",
"...........cceefffga............",
"..........ahaeeffaga#...........",
"..........ahaaaaaggga#..........",
"...........agggggggga...........",
"................................",
".....#....................#.....",
"......#..................#......",
"#..............................#",
"##............................##",
"##............................##",
"i#............................#i",
"................................",
"................................"};
