/* XPM */
static char *dummy[]={
"32 32 9 1",
"a c #141b1b",
"b c #3b3643",
"g c #4a7f4b",
"c c #4e484a",
"e c #548789",
"# c #74a334",
"f c #79b8ce",
". c #adbc3a",
"d c #d14b34",
"..#..........................#..",
"................................",
"................................",
"................................",
"....#...............#...........",
".....#...............#..........",
"................................",
"................................",
"..........#...............#.....",
".........#...aaaaaa......#......",
"...........aabcccccaa...........",
"..........abbbcccccbba..........",
".........abbbbbcccbbba..........",
".........abbbbabbabbbba.........",
".........abbbabbbbabbba.........",
"..........abbabbbbabba..........",
".........adbbabbbbabbda.........",
".........adbbbaaaabbbda.........",
"..........aabbbbbbbbaa..........",
"..........aeebbbbbbeea..........",
".........aeeeffffffeeea.........",
".........aeeeeaffaeeeea.........",
"..........aaeeeaaeeeaa..........",
"................................",
".....#....................#.....",
"......#..................#......",
"#..............................#",
"##............................##",
"##............................##",
"g#............................#g",
"................................",
"................................"};
