/* XPM */
static char *dummy[]={
"32 32 7 1",
"a c #141b1b",
"b c #4a7f4b",
"c c #4e484a",
"# c #74a334",
"d c #a16240",
". c #adbc3a",
"e c #bd7959",
"..#..........aaaaaaaa........#..",
"..........aaa########aaa........",
".........a##############a.......",
"........a################a......",
"....#..aa################a......",
".....#a#b################ba.....",
".....a##b###############b#a.....",
".....a###bb###########bb###a....",
"....aa#####bbbbbbbbbbb#####ba...",
"...a#b########bbb##########ba...",
"..a##b#########b##########b#a...",
".a####b#######bbb#######bb###a..",
".a#####bbbbbbbbbbbbbbbbbb#####a.",
".ab###bbb########bbb####b#####a.",
"..a##bb###########b######b###ba.",
"..ab#b###################bbbbba.",
"...abb###########bbb####bbbbba..",
"....abb########bbbbbbbbbbbbaa...",
"..aaccbbbbbbbbbbbbccccbbaaa.....",
".abbbbccbbbbbbbbbc####caa.......",
".abbbbbccccddddcc######bdaa.....",
".acbbbadddccceedcbb###bbddda....",
"..accacceedddceedbbbbbbbaadda...",
"...aadeedeedddddddbbbbba..add...",
"....acdeededdeeeeedeedddaa#.....",
"..aaeeecddcdccceedeedeeeedaa....",
"#adddeeeaaaceeecdeedeeeeeedda..#",
"adddddaa...aeeecaadeeeeaaaddda##",
"addd.......aeeea..aeeea...adda##",
"b#.........adeeea.............#b",
"............adddd...............",
"................................"};
