/* XPM */
static char *dummy[]={
"50 50 475 2",
"as c #000000",
"dQ c #000204",
"dO c #000309",
"dY c #000b1c",
"dP c #00122e",
"dX c #00214f",
"dE c #002858",
"dN c #002b59",
"dF c #002b5b",
"dG c #002d5f",
"dH c #003062",
"dM c #003366",
"eI c #007d00",
"di c #010100",
"fu c #010101",
"cG c #010200",
"e2 c #020101",
"cZ c #020300",
"da c #020501",
"ft c #020700",
"b. c #030202",
"#2 c #030303",
"d8 c #030304",
".8 c #038300",
"fv c #040405",
"fq c #040406",
"#J c #048a01",
"fh c #049e00",
"aF c #050101",
"d6 c #050507",
"er c #060608",
"cT c #060902",
"#Y c #069201",
"b5 c #06a101",
"fp c #070708",
"d5 c #070709",
"dl c #070a02",
"ej c #071a02",
"fd c #080503",
"d0 c #080808",
"es c #08080b",
"ds c #080c02",
"cU c #080c03",
"e5 c #090807",
"eG c #091c02",
"#X c #0a0200",
"cH c #0a2a02",
"e1 c #0b0703",
"bA c #0b0a09",
"#9 c #0c0300",
"eQ c #0c0805",
"et c #0c0b0a",
"fk c #0c0b0c",
"ee c #0c0c0c",
"#v c #0c8502",
".l c #0c8b02",
"#P c #0d9202",
"#F c #0d9b02",
"df c #0e0d0b",
"dL c #0e0e0e",
"d7 c #0e0e13",
"by c #0f0d0d",
"a6 c #0f0e0c",
"ah c #0f0f0f",
"ef c #0f0f12",
"dt c #0f3503",
"bS c #0f7203",
"dk c #101806",
"dr c #124d04",
"bZ c #130503",
"bi c #13110f",
"c6 c #131c07",
"eq c #141415",
"fr c #14141a",
"e7 c #144605",
"bF c #145d04",
".x c #148304",
".v c #148c04",
".I c #149304",
"c3 c #15150d",
"cS c #153005",
"aP c #154b05",
".Q c #159a04",
"e# c #161616",
"ei c #161619",
"dC c #16161a",
"#w c #16a105",
"aN c #170604",
"eW c #170f07",
"fw c #176405",
"fs c #18181c",
"e4 c #191614",
"eh c #19191b",
"bQ c #198705",
"dV c #1a1a1a",
"dT c #1a1a1c",
"c7 c #1a4506",
"#S c #1b0700",
"eg c #1b1b1c",
"#o c #1b8d06",
"d4 c #1c1c1d",
"ew c #1c4806",
"cE c #1c7202",
"#H c #1c8607",
".J c #1c9406",
".d c #1c9b06",
".p c #1ca306",
"eA c #1d130b",
"dU c #1d1d1d",
".V c #1da907",
"dS c #1e1e1e",
"eD c #1f1b1a",
"bm c #1f1c18",
"c0 c #1f4307",
"fx c #1f8e08",
".N c #1f9308",
"fm c #201a1a",
"cL c #206208",
"ez c #21160d",
"fn c #216608",
".# c #218e07",
"bu c #21a907",
"aY c #221e1c",
"dK c #226708",
".t c #229407",
".i c #229c07",
".n c #22a407",
"eL c #238008",
".q c #238d08",
"eU c #238e08",
"eJ c #239408",
"eP c #24180e",
"b6 c #248405",
"cj c #250a00",
"cA c #25211f",
"dn c #25360c",
".A c #259408",
"eV c #259908",
".M c #259b08",
"dJ c #26262c",
"ek c #266009",
"ea c #267509",
"ce c #267e05",
".G c #26a308",
"eH c #26aa08",
"aU c #27231e",
"bp c #272727",
"eK c #276709",
"cR c #278305",
"d3 c #292422",
"dI c #2a2a30",
"dv c #2a3d0c",
"#5 c #2b0a05",
"em c #2b2621",
".b c #2b940a",
"cN c #2c7905",
"bR c #2c7e0b",
".T c #2c8e0a",
".o c #2c9b0a",
".c c #2ca30a",
"Qt c #2cab0a",
"ai c #2d0c00",
"ey c #2d1e12",
"#u c #2d9f0a",
"b# c #2db409",
"e6 c #2ebb0b",
"ff c #312014",
".W c #318506",
"bP c #322c2a",
"fa c #327b0c",
".F c #32950c",
"aT c #333333",
"#j c #337e08",
".a c #339c0c",
"dA c #33b80b",
"aQ c #348408",
"#i c #34870d",
".5 c #348d0d",
".h c #34a30c",
".L c #34ab0c",
".y c #34b30c",
"cP c #35950b",
"dD c #36363e",
".3 c #366805",
"aI c #36890b",
"cM c #368f0d",
"bv c #369a0b",
"cg c #376505",
"dW c #377111",
"aK c #38322f",
"cY c #385110",
"ed c #393939",
"fo c #3aa10e",
"bg c #3b3b3b",
"d# c #3b5715",
"cK c #3b840e",
".s c #3b950e",
".D c #3b9d0e",
".r c #3ba30e",
".f c #3bab0d",
"#K c #3c1000",
"en c #3c3c49",
"c1 c #3c5816",
"a2 c #3c6404",
"#h c #3c8d0f",
".m c #3cb20e",
"#W c #3d0b00",
"dm c #3db90d",
"b7 c #3e6305",
".j c #3ea210",
"cI c #3f770f",
"#m c #3f9c10",
"eB c #402a1a",
"dj c #405e17",
"bH c #40910f",
".u c #419b0f",
".g c #41a40f",
".e c #41ab0f",
"c9 c #426018",
"dq c #426118",
"cD c #42ae0f",
".U c #42b30f",
"bW c #433b34",
"#g c #436607",
"a. c #439c10",
"b1 c #44120c",
".w c #44a410",
"cv c #44ba0f",
"f. c #452e19",
"fj c #45382e",
"eF c #453d39",
".B c #45ab10",
".K c #45b310",
"dw c #466514",
"ex c #472f1d",
"dB c #479e10",
"a5 c #483f3c",
"ax c #486506",
"cC c #486c09",
"#n c #489212",
"fg c #489a10",
"dh c #497515",
"cw c #497e0b",
".2 c #4a3f02",
"aR c #4aa311",
".R c #4aa511",
"fl c #4b3e32",
"bj c #4b423f",
".H c #4bab11",
".E c #4bb212",
".S c #4bba12",
"e8 c #4c3319",
"fi c #4c3f33",
"ec c #4c4c4c",
"el c #4c9c13",
"a# c #4c9d0f",
"de c #4d701a",
"b0 c #4e140d",
"b8 c #4e2b01",
"fc c #4e341a",
"eO c #4e3420",
"cQ c #4e6d0a",
"dc c #4e721a",
"#y c #4e840d",
"cX c #4f463d",
"aD c #4f4f4f",
"ep c #4f4f56",
"cO c #4f850d",
"fy c #4f8c14",
"#Z c #522e02",
"dp c #52781b",
".C c #52ac13",
"an c #532801",
"cu c #533002",
"b4 c #533603",
".4 c #53a613",
".6 c #53b313",
".Y c #543604",
"ev c #544a42",
"aZ c #544a46",
".k c #549b16",
".7 c #54bb13",
"e3 c #553923",
"eE c #554a47",
"eb c #554b47",
".P c #55c114",
".O c #55cc13",
"a0 c #563103",
"cx c #572602",
".Z c #582401",
"eY c #583a1d",
".X c #586f0a",
"ak c #591900",
"az c #591f01",
"bb c #592402",
"b3 c #592602",
"dx c #59811a",
"dd c #59821c",
"#G c #59ad16",
"aH c #5a1a01",
".0 c #5a2402",
"f# c #5a3c25",
".z c #5ac116",
"ch c #5b1a01",
".1 c #5b2302",
"#7 c #5b5046",
"#I c #5bb316",
"#x c #5bbc15",
"bk c #5c1300",
"#p c #5c1901",
"#f c #5d1300",
"ay c #5d1700",
"e0 c #5d3e1e",
".9 c #5e1200",
"cn c #5e1810",
"ap c #5e1a06",
"bw c #5e5349",
"bN c #5e534f",
"al c #5f1200",
"aa c #5f1201",
"cf c #60b417",
"cF c #611302",
"#A c #611b00",
"aW c #615650",
"eT c #615651",
"#z c #621300",
"ba c #621302",
"d. c #628e1c",
"b9 c #631400",
"a7 c #631806",
"aX c #631907",
"bl c #636363",
"#L c #641c00",
"d1 c #645854",
"am c #651504",
"d9 c #655954",
"co c #661505",
"b2 c #661506",
"eo c #666666",
"#T c #671504",
"bd c #675b4f",
"ae c #676767",
"bG c #67c818",
"aS c #681606",
"#C c #692312",
"eZ c #694622",
"#Q c #6a1700",
"db c #6a9a1f",
"c4 c #6a9b1f",
"bt c #6b5e59",
"c8 c #6c9d1f",
"ab c #6d180a",
"fb c #6d4924",
"c5 c #6d9f20",
"aG c #6dc219",
"bE c #6e615c",
"cp c #6f190b",
"do c #6fa120",
"#. c #701900",
"c2 c #70a321",
"eX c #724c26",
"cd c #731b00",
"cz c #731b0e",
"dz c #747482",
"#1 c #752100",
"fe c #754d26",
"ct c #761c00",
"cq c #761d10",
"a1 c #771d11",
"aC c #776964",
"#E c #781d00",
"#B c #783a2a",
"cc c #7b1e00",
"bJ c #7b6c5e",
"bY c #7b6c66",
"#s c #7c1e00",
"#e c #7d1f00",
"aE c #7d2015",
"aw c #7e2116",
"d2 c #7e6f69",
"a8 c #7f7062",
"bf c #7f7f7f",
"ci c #822100",
"ao c #822213",
"aJ c #837364",
"cb c #842311",
"## c #852200",
"dy c #85858c",
"cs c #872300",
"bz c #877768",
"e. c #877771",
"at c #88240f",
"ac c #892400",
"cr c #892403",
"#D c #892700",
"e9 c #8a5c2e",
"#M c #8d5849",
"aj c #8e270b",
"#d c #902700",
"#k c #90523d",
"#0 c #912700",
"cy c #932907",
"ag c #939393",
"#t c #952900",
"eN c #956332",
"av c #962a06",
"#R c #962b00",
"bo c #978574",
"eC c #97857e",
"#q c #982a00",
"#O c #992b00",
"eM c #996633",
"du c #999999",
"#c c #9a2b00",
"au c #9b2c03",
"#a c #9d2d00",
"#l c #9e2d00",
"bc c #9f9f9f",
"#b c #a02e01",
"ck c #a28e87",
"bD c #a79380",
"eR c #a7938b",
"bh c #af9a86",
"a9 c #b09b93",
"aO c #b29d8c",
"dR c #b39d89",
"eS c #b39e96",
"a4 c #b7a18c",
"bM c #b7a199",
"bO c #baa49b",
"ca c #bda69e",
"bx c #bea89f",
"bI c #bfa892",
"ad c #bfbfbf",
"cB c #c0a9a1",
"bC c #c3ac96",
"bX c #c6afa6",
"a3 c #c7c7c7",
"#6 c #c8afa6",
"#N c #cab2a9",
"cJ c #cbb3a9",
"aL c #cbcbcb",
"br c #ccb3aa",
"aB c #ccb4aa",
"cm c #cdb4aa",
"cV c #ceb5ab",
"af c #cfb7ab",
"aV c #cfcfcf",
"#V c #d1b8ac",
"c# c #d4bbae",
"c. c #d5bca5",
"#U c #d8beaf",
"ar c #dbdbdb",
"dg c #dcc2b2",
"bs c #ddc3b3",
"dZ c #dec4b3",
"bV c #dfc5b4",
"bU c #e0c5b4",
"aA c #e3c8ae",
"#8 c #e3e3e3",
"bq c #e7cbb1",
"bB c #ebcfb9",
"aM c #ebebeb",
"bL c #eed2bb",
"bn c #efd2bb",
"cW c #f1d5bd",
"aq c #f3f3f3",
"be c #f8dbc0",
"eu c #fadcc1",
"bT c #fbddc0",
"#4 c #fbfbfb",
"cl c #fddfc3",
"bK c #fee0c3",
"#r c #ffe1c4",
"#3 c #ffffff",
"Qt.#.a.b.c.d.e.a.f.b.g.h.i.g.j.k.a.l.m.n.e.l.o.p.f.q.g.r.s.f.t.d.r.u.b.s.i.v.w.x.y.w.r.i.z.r.#.c.A.B",
".C.a.D.E.r.o.F.G.i.A.i.H.i.I.g.f.b.o.w.h.w.v.b.J.AQt.A.f.a.K.r.L.f.G.r.c.M.g.B.o.f.N.b.C.g.I.e.o.a.I",
".f.O.M.h.fQt.q.o.H.d.m.#.M.H.P.h.s.Q.aQt.D.e.w.a.h.R.i.v.S.J.y.R.m.T.g.h.U.g.r.J.h.R.K.d.f.s.V.t.M.e",
".R.a.J.B.r.w.R.h.M.A.K.e.d.o.J.G.x.C.W.X.Y.Z.0.1.0.2.3.I.D.B.l.M.l.A.i.4.C.J.a.h.w.Q.A.A.w.r.5.p.6.#",
".r.h.s.i.A.D.o.7Qt.G.8.A.a.r.4.i.M.9#.###a#b#b#b#c#d#e.9#f#g.D.i#h.c.L.r.c.G.A.i.F.v.h.w.r.A.f.HQt.6",
".H.a#i.b.l.t.b.g.t.#.a.H.m.o.e.h#j#b#b#b#b#b#b#b#b#k#l#b#b#l.9.9.b.r.r.U.i.a#m.F.l.4.a.n.j.r.H.J.f.c",
".K.i.e.r.B.Q.r.G.o.#.M.h#n.E.b#o#p#b#b#b#b#b#b#b#q#r#s#b#b#b#b#t.9#u.M.r.J#v.d.a.a#w.c.h.D.G.p.c.J.o",
".o#x.H.R.o.a.M.L.Q.L.K#o.M.J.f#y#z#b#A#b#b#b#b#q#B#r#C#b#D#b#b#b#b#E.9#F#G.A.m.s#H#I.c.h.R.r.r#w.b.o",
".D#J.e.h.G.h.7.t.f.o.s.L.m.n.B.9#b#K#b#L#b#b#b#M#r#r#N#O#b#b#b#b#b#b#b.9.E.a.E.a.i.d.S#x.a.h.M.s#P.o",
".H.w.H.h.A.o.F#o.s.o.U.a.s.Q.f#Q#b#R#b#S#a#b#T#U#r#r#V#W#b#X#b#b#b#b#b.9#x.d.R.e.C.h.k.t.f.b.J.c#m.Q",
".i.h.w.K.M.F.r.a#w.B.R.Q#Y.o#Z#b#0#1#2#3#4#5#6#r#r#7#8#3#9#b#X#b#b#b#b.9.J.s.I.#.A.U#h.i.D.M.u.f#x.l",
".M.F.K.Q.g.ya..A.5.A.s.4.Ha#aaabac#aad#3#3aeaf#r#rag#3#3ahai#b#b#b#bajak#G.f.U.o.H.8.c.K.F.f.o#x.v.o",
".I.A.M#o.f.H.G.L.r.b.w.b.falamanaoapaq#3#3#3#r#r#Nar#3#3#3asatauavawawax.M.f.A.r.f.f.I.R.G.F.r.g.5#w",
".B.I.L.J.M.h.H.o.s.B.g.hayaz.Aabawasas#3#3#3aAaBaCas#3#3#3aDaEawawawaFas.d#m.L.w.f.H.c.Q.CaG.t.r.r.o",
".6.c.d.ca..a.#.g.c.g.f.faH.gaIawawasas#3#3#3aJ#NaKasaL#3#3aM.9awawaN#raOaP.M.r.r.D.o.b.H.a.H.o.H.r.7",
".b.M.#.r.J.h.h.f.I.baQaR.a.f.9awaSasaT#3#3#3aU#NasasaV#3#3#3aWaXaE#raYaZas.D.h.D.r.M.f.E#o.l.A.c.D#v",
".f.f.o.d#I.E.a.a.M.w.d.f.aa0a1aaa2asa3#3#3#3a4#Na5as#3#3#3#3a6#ra7a8#Na9b..U.Fb#.r#o#o.U.f.J.g.F.Q.w",
".r.e.b.A.c.F.f.D.b.a.r.L.hbabb.s.has#3#3#3bcbd#Nbebf#3#3#3bg#r#r#rbhbi#Nbj.r.i.#.h.M.f.f.M.J.h.6.6.d",
"#x.J.w.d.A.A.J.r.U.J.t.abk.r.K.6.AaKas#4blaJbm#Nbnbobp#3asbq#rbrbs#Nbt#Nasbu.e.F.A.7.c.G.r.H.g.g.h.a",
"Qt.#.a.b.c.d.e.a.f.b.gbv.i.g.j.k.abwbxbybz#rbA#NbB#rbCasbD#r#N#N#NbE#NaCbF.v.w.B.h.M.M.J.rQt.da..o.o",
".r.J.6.K.D.r.Q.T.K.J.bbG.P.J.gbH.tas#r#rbIbJ#N#NbK#r#r#7bL#N#NbMbNbObPbQ.F.h.a.B.b.obR.6.a.e.g.L.c.a",
".f.O.M.h.fQt.q.o.H.d.m.#.M.H.P.h.sbSbT#r#rbTbUbV#rbTbWbX#N#NbYbZb0b1b2.9.9b3b4b5.K.d.L.h.c.F.t.h.R.B",
".R.a.J.B.r.w.R.h.M.A.K.e.d.ob6b7b8b9asc.#r#rc##N#N#N#N#Ncaasawawcbcccd.9.9ce.d.f.o.m.a.r.n.p#I.D.e.a",
".Q.F.r.t.g.h.U.f.r.M.b.Q.e.pcfcgch.9cicjckcl#rcm#N#N#Nascnawawcocpcqcrcsctcu.i.o.s.L.h.A#x.y.h.g.fcv",
".H.a#i.b.l.t.b.g.t.#.a.H.m.ocwcx.9#ccyczasa5#N#N#NcAascB.9coawaw.9cCcCcD.i.a.f.p.h.d#m.d.o.b.C.h.M.s",
".a.G.e.v.M.o.r.Q.d.5.Tcv.h.g.R.R.Q.ccEcFco.9cGcHcI#N#NcJcKcLcMcNcOcP.Q.C.V.e.l.F.l.w.G.D.d#o.L.h.R.A",
".o#x.H.R.o.a.M.L.Q.L.K#o.M.J.f.R.a.vcQcR.K.ecScTcUcVcWcXcYcYcZc0.r.C.r#F#G.A.U.q.H.Hbu.h.r.f.D.h.d.C",
".D#J.e.h.G.h.7.t.f.o.s.L.m.n.B.v.F.S.a.c.r.ac1c2c2c3c4c2c2c2c5c6.H#o.w.r.E.a.o.r.H.i.7.u.M.JQt.J.M.b",
".H.h.w.C.M.h.h.o.f.l.n.R.a.o.a.r.v.f.r.wb5c7c8c2c2c2c2c2c9d.c2d#.o.o.K.a.D.#.H.t#i.M.T.J.o.A.M.o.H.N",
".i.h.w.K.M.F.r.a#w.B.R.Q#Y.o.M.6.oQt.b.c#odadbdcc9ddc2dec9dfdg#N.A.f.acv.J.s.c.a.l.bQt.H.G.Hdh.f.f.h",
".L.D.h.d.D.a.o.Ta..H.o.S.b#x.I.A.o.g.b.h.Masdidjc9asdkdlc9as#r#N.n.G.B.h.e.r.G.r.f.AQt.M.S.I.r.U.b.a",
".I.A.M#o.f.H.G.L.r.b.w.b.f.r.h.A.A.fdm.J.Lasdndoc2dpdec4dqas#r#N.h.R.l.y.M.f.n.D.l.b.t.f.t.g.f.a.f.h",
".B.I.L.J.M.h.H.o.s.B.g.h.f.M.A.r.i#P.L.adrasc2c2c2c2c2c2dsasasasdtQt.6.c.d#m.r.G.s.K.D.o.f.D.K.J.C.e",
".r.U.p.C.Q.c.h.b.4.y.c.d.f.r.r#G#H.s.a.BduasdvcYdwdxd.d.dydudududz.A.B.g.b.i.I.R.R.hQt.D.r.o.w.r.o.6",
".b.M.#.r.J.h.h.f.I.b.o.R.a.f.D.H.bdA.EdBdCdDdEdFdGdHdHdHasdCdIdJas.a.L.n#I.D.7.rQt.B.D.f.o.t.M.F.B.i",
".g.g.a.M.r.r#P.L.p.e.h.7.5.L.a.v.L.gdKdLclasdMdNdOdPdQdRdSdSdTdUdV.t.da.#H.r.t.hdW.t.r.o#I.T.r.o.c.v",
".r.e.b.A.c.F.f.D.b.a.r.L.h.w.L.s.h.sasdLaBasdMdMdXdYdZd0d1d2bNd3dS.a.Q.f.w.r.C.c.h.b.G.F.n.g.t.b.f.B",
"#x.J.w.d.A.A.J.r.U.J.t.a.q.r.K.6.A.dd4d5d6d7d8a9a9d9e.dSdSdSe#ahdSea.g.H.Mbu.D.y.r.v.Mcf.v.m.d.o.a.Q",
"Qt.#.a.b.c.d.e.a.f.b.g.h.i.g.j.k.a.lebd2asecedeeasecasefegdSdSeheiasejek.i.v.K.e.Hel.l#o.e.m.J.M.y.H",
".C.a.D.E.r.o.F.G.i.A.i.H.i.I.g.f.b.oas#NemeneoeoeoepeqcBaseresd5eteu#rev.M.g.c.t.a.hel.m.E.a.f#v.#.m",
".f.O.M.h.fQt.q.o.H.d.m.#.M.H.P.h.s.Q.aasaCewexeyezeAeBbXeCeDbMeE#NeFaseG.U.g.w.I.D.C.t.o.r.b.f.m.H.w",
".T.F.D.r.Ha..S.c.D.r.g.SeH.a.J.beI.7.LeJeKeLeMeMeNeOePeD#NeQeReSeTaseU#x.u.M.c.o.w.K.h.c.a.M#w.t.o.S",
".r.h.s.i.A.D.o.7Qt.G.8.A.a.r.4.ieVeWeXeXeYaseZeXe0e1e2e3e4e5cG.i#h.c.L.r.c.G.h.h.C.d.c.v.CQta..ee6.E",
".H.a#i.b.l.t.b.g.t.#.a.H.m.o.e.he7eMeMeMe8e9eMeMeMeMeMeMf.f#as.a.b.r.r.U.i.a#w.G.h.K.g#w.a#o.E.l.D.M",
".K.i.e.r.B.Q.r.G.o.#.M.h#n.E.b#ofaeMeMeMfbfceMeMeMeMeMeMeMeMfd.g#I.c.M.r.J#v.a.b.D.J.d.H.h.c.s.o.A.f",
".o#x.H.R.o.a.M.L.Q.L.K#o.M.J.f.R.afeeMeMeMaseMeMeMeMeMeMeMeMfffg.r.C.r#F#G.A.B.a.d.Cfh.D.r.D.4.g.h.a",
".4.A#I.w.L.S.F.#.#.I.J.r.l.t.h.p.Masfififjfkfififififififlfifmfn.c#Y#m.a.h.r.R.f.E.r.D.Q.Db#.I.G.s.M",
".H.w.H.h.A.o.F#o.s.o.U.a.s.Q.f.4b#fofpfqfrasasd6ahasfsftfuasfvfw.s.B.Rfx#x.d.R.o.x.Mfy.7.A.a.p.h.c.b",
".i.h.w.K.M.F.r.a#w.B.R.Q#Y.o.M.6.oQt.b.c#o.w.H.h.c.B.M.K.D.o.m.b.A.f.acv.J.s.o.4.h.t.c.D.o.R.5.h.m.b",
".M.F.K.Q.g.ya..A.5.A.s.4.H.H.n.B.a.r.m.a.K.w.b.c.A.i.rel.A.6.A.d.L.R#G.v#G.f.i.L.T.ddW.h.t.i.U.H.r#P"};
