/* XPM */
static char *dummy[]={
"50 50 315 2",
"#w c #000000",
"#E c #000001",
"#O c #000002",
"aP c #000003",
"#H c #000100",
"#D c #000101",
"#G c #000102",
"#I c #000103",
"ar c #000104",
"#9 c #000201",
"#J c #000202",
"bY c #000203",
"bT c #000204",
"#4 c #000301",
"cf c #000302",
"cK c #000403",
"cY c #007d00",
"#W c #010000",
"#B c #010001",
"bJ c #010002",
"b5 c #010100",
"#z c #010101",
"aa c #010102",
"bK c #010103",
"at c #010205",
"#A c #020001",
"a. c #020102",
"#N c #020103",
"ag c #030000",
"aB c #030204",
"cb c #030303",
"c# c #030404",
"b8 c #030506",
".0 c #038300",
"b2 c #040003",
"aD c #040102",
"au c #040301",
"#f c #048a01",
"c0 c #049e00",
"b7 c #050401",
"ca c #050406",
"bp c #060101",
"c1 c #069201",
"aj c #070204",
"aC c #070205",
"#M c #080203",
"ai c #080206",
"ct c #080909",
"ck c #090909",
"cl c #090a07",
"#2 c #0c0102",
"cQ c #0c1702",
"## c #0c8502",
".l c #0c8b02",
"#7 c #0d0102",
"cm c #0d0202",
"bV c #0d0302",
"#u c #0d9202",
"#d c #0d9b02",
"cs c #0e0a0a",
"cA c #0e0f0e",
"cd c #0e1004",
"cI c #0f0f04",
"cg c #0f0f0c",
"#F c #121b13",
"aw c #140104",
"aE c #140404",
"cC c #140904",
"#v c #14140c",
".x c #148304",
".v c #148c04",
".I c #149304",
"aL c #150104",
"cx c #150704",
"#y c #151504",
"b3 c #151511",
"bX c #15170c",
"b6 c #151a04",
".Q c #159a04",
"#x c #161611",
"#L c #161a13",
"#a c #16a105",
"cj c #171708",
"cW c #17170e",
"cR c #17180a",
"cz c #18180f",
"#C c #1a170a",
"#X c #1a2306",
"a9 c #1b0106",
"ap c #1b0206",
"bU c #1b0606",
"aU c #1b0806",
".8 c #1b8d06",
"#V c #1c0006",
"ae c #1c0106",
"bA c #1c0107",
"a5 c #1c0206",
"cS c #1c0606",
"bq c #1c1106",
"cP c #1c1c0f",
"#e c #1c8607",
".J c #1c9406",
"bP c #1c9a06",
".d c #1c9b06",
".p c #1ca306",
"bR c #1d0107",
".V c #1da907",
"a# c #1f260a",
"c3 c #1f8e08",
".N c #1f9308",
"ax c #210107",
"aY c #210407",
"cy c #21050a",
".# c #218e07",
"bW c #21a907",
"a6 c #220007",
"#6 c #220107",
"a8 c #220207",
"cp c #220307",
"cG c #220c07",
"cN c #221107",
"bD c #221507",
".t c #229407",
".i c #229c07",
"#i c #22a007",
".n c #22a407",
"ao c #230008",
"a1 c #230108",
"cU c #230308",
"cv c #23040a",
"cL c #231013",
".q c #238d08",
"cH c #241e0a",
"#Z c #250008",
"#T c #250108",
"ab c #250208",
"aN c #250408",
"aA c #250508",
"aZ c #250608",
"b9 c #250808",
"a3 c #250a08",
"bd c #251008",
"bw c #251408",
"bH c #254208",
".A c #259408",
".M c #259b08",
"bi c #260108",
"as c #26270d",
".1 c #268509",
".G c #26a308",
"cX c #26aa08",
"aX c #28080a",
"bf c #2b000a",
"aq c #2b010a",
"aF c #2b020a",
"#P c #2b060a",
"#Y c #2b070a",
"bx c #2b080a",
".b c #2b940a",
"aG c #2c000a",
"ac c #2c010a",
"bC c #2c020a",
"av c #2c030a",
"cq c #2c040a",
"cB c #2c090a",
"bk c #2c110a",
"bE c #2c120a",
".T c #2c8e0a",
".o c #2c9b0a",
"#n c #2ca00a",
".c c #2ca30a",
"Qt c #2cab0a",
"aT c #2d0109",
"aK c #2d0409",
"c2 c #2db409",
"ce c #2e010b",
"bs c #2e460c",
"bu c #2e480d",
"cZ c #2ebb0b",
"bt c #31490f",
"am c #32000c",
"aR c #32010c",
"cw c #32020c",
"#k c #32930c",
".F c #32950c",
"aH c #33000b",
"#0 c #33010b",
"#8 c #33010c",
"bO c #33020c",
"co c #33030c",
"ci c #33090b",
"b4 c #33090c",
"cF c #33110c",
"cE c #33120c",
"#m c #33990c",
".a c #339c0c",
"a2 c #34000c",
"#S c #34010c",
"cn c #34020c",
"#5 c #34030c",
"aQ c #34050c",
"cu c #34060c",
"cr c #34080c",
"bG c #34400c",
".3 c #34870d",
".Y c #348d0d",
".h c #34a30c",
"#g c #34a80c",
".L c #34ab0c",
".y c #34b30c",
"bz c #370111",
"cJ c #377111",
"aV c #3b000e",
"#Q c #3b010d",
"#R c #3b010e",
"ak c #3b020d",
"cM c #3b040e",
"cT c #3b0d0d",
"bF c #3b0d0e",
"bv c #3b130e",
".s c #3b950e",
".D c #3b9d0e",
"#s c #3b9f0e",
".r c #3ba30e",
"#p c #3ba60d",
"#3 c #3ba70d",
".f c #3bab0d",
"bc c #3c010e",
"bm c #3c020e",
"br c #3c0d0e",
".2 c #3c8d0f",
"#h c #3cac0e",
".m c #3cb20e",
"#U c #3d000d",
"ch c #3d010d",
".9 c #3db90d",
"ba c #3e0010",
"az c #3e0110",
".j c #3ea210",
"af c #3f0210",
".6 c #3f9c10",
"bh c #40010f",
"cV c #401e0f",
"#c c #40910f",
"al c #41000f",
"aJ c #41010f",
".u c #419b0f",
".g c #41a40f",
".e c #41ab0f",
"aS c #42010f",
"a4 c #42030f",
".U c #42b30f",
"b0 c #430110",
"#o c #439c10",
"aO c #440110",
"bQ c #44020f",
"b1 c #440210",
"#r c #44a010",
"bS c #44a110",
".w c #44a410",
"bI c #44ba0f",
"a7 c #450010",
"ay c #450110",
"be c #450210",
"bZ c #450610",
"b# c #450913",
"#j c #45a610",
".B c #45ab10",
".K c #45b310",
"bN c #460110",
".5 c #46bc10",
".7 c #489212",
"cc c #497515",
"#1 c #4a0111",
".R c #4aa511",
"bn c #4b0011",
"b. c #4b0111",
"aI c #4b0112",
"bl c #4b0211",
"bL c #4b0311",
"#q c #4ba611",
".H c #4bab11",
"#t c #4bac12",
".E c #4bb212",
"#l c #4bb312",
".S c #4bba12",
"#K c #4c9c13",
"c4 c #4f8c14",
"bj c #520113",
".C c #52ac13",
"an c #530013",
"ad c #530113",
"c. c #530313",
"cD c #530413",
"a0 c #530913",
".X c #53a613",
".Z c #53b313",
"aW c #540113",
"bb c #540116",
".k c #549b16",
".W c #54bb13",
"bo c #550114",
".P c #55c114",
".O c #55cc13",
"bM c #590116",
".4 c #59ad16",
".z c #5ac116",
"bB c #5b0115",
"aM c #5b0116",
"#. c #5bb316",
"#b c #5bbc15",
"by c #600117",
"cO c #60b417",
"bg c #67c818",
"ah c #6dc219",
"Qt.#.a.b.c.d.e.a.f.b.g.h.i.g.j.k.a.l.m.n.e.l.o.p.f.q.g.r.s.f.t.d.r.u.b.s.i.v.w.x.y.w.r.i.z.r.#.c.A.B",
".C.a.D.E.r.o.F.G.i.A.i.H.i.I.g.f.b.o.w.h.w.v.b.J.AQt.A.f.a.K.r.L.f.G.r.c.M.g.B.o.f.N.b.C.g.I.e.o.a.I",
".f.O.M.h.fQt.q.o.H.d.m.#.M.H.P.h.s.Q.aQt.D.e.w.a.h.R.i.v.S.J.y.R.m.T.g.h.U.g.r.J.h.R.K.d.f.s.V.t.M.e",
".R.a.J.B.r.w.R.h.M.A.K.e.d.o.J.G.x.C.G.W.rQt.f.w.f.n.t.I.D.B.l.M.l.A.i.X.C.J.a.h.w.Q.A.A.w.r.Y.p.Z.#",
".r.h.s.i.A.D.o.WQt.G.0.A.a.r.X.i.M.i.h.h.h.1.i.Q.B.b.e.r.e.a.D.i.2.c.L.r.c.G.A.i.F.v.h.w.r.A.f.HQt.Z",
".H.a.3.b.l.t.b.g.t.#.a.H.m.o.e.h.b.r.A.C.M.h.J.E.F.L.g.H.4.f.5.a.b.r.r.U.i.a.6.F.l.X.a.n.j.r.H.J.f.c",
".K.i.e.r.B.Q.r.G.o.#.M.h.7.E.b.8.B.M.i.e.S.h.t.d.R.J.e.E.9.b.b.g#..c.M.r.J##.d.a.a#a.c.h.D.G.p.c.J.o",
".o#b.H.R.o.a.M.L.Q.L.K.8.M.J.f.R.a.v.w.d.K.e.H.i.o.c#c.r.eQt.r.Z.r.C.r#d.4.A.m.s#e#..c.h.R.r.r#a.b.o",
".D#f.e.h.G.h.W.t.f.o.s#g#h#i#j.v#k#l#m#n.r.a.d#o.m.e.a.a.M.##j#p#q.8#r#s#t#m.E.a.i.d.S#b.a.h.M.s#u.o",
".H.w.H.h.A.o.F.8.s.o.U#v#w#w#w#w#w#w#w#w.b.K.s.M.X.D.0.t.S#x#w#w#w#w#w#w#w#w.R.e.C.h.k.t.f.b.J.c.6.Q",
".i.h.w.K.M.F.r.a#a.B.R#y#z#A#z#A#A#A#B#w.8.w.H.h.c.B.M.K.D#C#A#z#z#z#B#w#D#E.I.#.A.U.2.i.D.M.u.f#b.l",
".M.F.K.Q.g.y#o.A.Y.A.s#F#G#H#H#I#J#J#w#w.K.w.b.c.A.i.r#K.A#L#M#N#G#D#G#I#D#D.U.o.H.0.c.K.F.f.o#b.v.o",
".I.A.M.8.f.H.G.L#w#w#O#P#Q#R#S#T#T#Q#U#V#w#W#w.o.S.g#X#w#O#Y#Z#0#S#1#2#S#T#Q#w#w#w#3.I.R.G.F.r.g.Y#a",
".B.I.L.J.M.h.H.o#W#I#4#5#Q#T#T#R#6#7#S#8#9a.#w.F.H.ba#aa#9abac#Sacacadacaeaf#G#Nag#q.c.Q.Cah.t.r.r.o",
".Z.c.d.c#o.a.#.g#Gaiajak#Zalamanaoapacaq#4ar#H.o.o.aasatauav#Tawax#8ayazacaAaBaCaD.o.b.H.a.H.o.H.r.W",
".b.M.#.r.J#w#w#GaEaFaG.R.a.f.D.H.baHaI#1aJaI#R#O#w#GaK#6aL#Rae#S#1#8#S#6aM#R#S#R#RaN#w#w.8.l.A.c.D##",
".f.f.o.d#.#w#w#IabaO#V.f.a.f.y.t.n#V#6aI#R#6ayaP#w#OaQ#Tac#7aq#6#QaR#TaR#2aSaRaT#RaU#w#w.f.J.g.F.Q.w",
".r.e.b.A.c#w#waraF#8aV.L.h.w.L.s.h#RaqaJ#TaW#TaXaYaZa0#T#8aca1aSaS#8aL#QaO#R#6axa2a3#w#w.M.J.h.Z.Z.d",
"#b.J.w.d.A#w#wara4a5a6.a.q.ra7ad#Tae#R#6#QacaI#R#S#Ra8ae#R#Ra9#S#S#8aJb.#TaxaJaR#Tb##w#w.r.H.g.g.h.a",
"Qt.#.a.b.c#w#w#O#Qaqal.h.i.gbabb#8#2bc#6aJ#2acae#Qa1aJ#R#R#Q#6ae#RaJaq#R#6awaOaya2bd#w#w.rQt.d#o.o.o",
".r.J.Z.K.D#w#w#Ebea5bfbg.P.Jalbh#6#Rbi#RaI#R#TacacaJ#Ray#8bjaO#SacaJacaeaR#S#8aybfbk#w#w.a.e.g.L.c.a",
".f.O.M.h.f#w#w#Iblaebmax#Zbnbo#S#RaL#8ac#RaJaO#8#S#1#6awaIae#S#1bcacaJ#SaSaJ#Sbpa7bq#w#w.c.F.t.h.R.B",
".R.a.J.B.r#w#w#G#T#TayaJaeacaebiawbjbiaW#Rac#QaO#Q#6#6aw#Ray#2#T#2#T#6adbjaeae#QaGbr#w#w.n.p#..D.e.a",
".Q.F.r.t.gbsbtbubvbwbxaLaJaeby#6#S#8#Q#6aTbza9a9ac#QacaJaRacaO#Tac#RaebAbBbCbDbEbFbGbsbH#b.y.h.g.fbI",
".H.a.3.b.l.t.b.gbJbKarbLbcacaJ#Saq#R#Tbj#T#SaeaIaR#SaJb.bM#QbN#8aq#R#RaS#6bO#w#D#EbP.6.d.o.b.C.h.M.s",
".a.G.e.v.M.o.r.Q#w#w#IbQ#SaJ#1#1aLac#2#RaI#R#T#6bybibcb.#1#8#Raeb.#8aLbjbRaJ#w#w#wbS.G.D.d.8.L.h.R.A",
".o#b.H.R.o.a.M.L#w#zbTbU#Ta5#Q#1#8awaOaeayaJb.#6acacbh#RaJac#Rad#Rbj#RbVbMab#E#z#w#qbW.h.r.f.D.h.d.C",
".D#f.e.h.G.h.W.t.f.o.sbX#GbYbZawaRaI#8ac#R#8aeb0bcaJ#8#8#Taxay#Qb.a9b1#Db2#w.o.r.H.i.W.u.M.JQt.J.M.b",
".H.h.w.C.M.h.h.o.f.l.nb3#w#Ob4#Raw#Q#RaObp#Rae#Sacacaq#6#Sb.ay#Tacacay#Eb5#w.H.t.3.M.T.J.o.A.M.o.H.N",
".i.h.w.K.M.F.r.a#a.B.Rb6b7b8b9c.bCbCaqaca9aOb.#Sacay#Tay#RacbcaF#TakbOc#cacb.c.a.l.bQt.H.G.Hcc.f.f.h",
".L.D.h.d.D.a.o.T#o.H.o.S.b#bcd#wbKaJaq#S#TbjacaqawaOac#SaRceacaEcf#waP.h.e.r.G.r.f.AQt.M.S.I.r.U.b.a",
".I.A.M.8.f.H.G.L.r.b.w.b.f.rcg#w#D#Qchae#S#RacacaIaJa9#Sayaq#Tci#J#w#w.y.M.f.n.D.l.b.t.f.t.g.f.a.f.h",
".B.I.L.J.M.h.H.o.s.B.g.h.f.Mcjckclcmcncocp#R#RaRb.aqac#RbiaNcqcrcsckck.c.d.6.r.G.s.K.D.o.f.D.K.J.C.e",
".r.U.p.C.Q.c.h.b.X.y.c.d.f.r.r.4#ect#O#Eaoaeb.ax#R#R#R#Rcucv#E#w.r.A.B.g.b.i.I.R.R.hQt.D.r.o.w.r.o.Z",
".b.M.#.r.J.h.h.f.I.b.o.R.a.f.D.H.bck#w#waJaI#RalaLcwaT#6cxcy#E#w.R.a.L.n#..D.W.rQt.B.D.f.o.t.M.F.B.i",
".g.g.a.M.r.r#u.L.p.e.h.W.Y.L.a.v.LczcgcAcBcCcDbLaW#RcEcFcGcHcgcI.#.t.d#o#e.r.t.hcJ.t.r.o#..T.r.o.c.v",
".r.e.b.A.c.F.f.D.b.a.r.L.h.w.L.s.h.s.b.ucK#H#HbCax#TcL#w#w.c.q.U.U.a.Q.f.w.r.C.c.h.b.G.F.n.g.t.b.f.B",
"#b.J.w.d.A.A.J.r.U.J.t.a.q.r.K.Z.A.d.r.icb#w#OcM#S#RcN#w#w.r.8.h.h.a.g.H.MbW.D.y.r.v.McO.v.m.d.o.a.Q",
"Qt.#.a.b.c.d.e.a.f.b.g.h.i.g.j.k.a.l.m.ncPcQcRcScTcUcVcWcW.f.t.d.r.u.b.s.i.v.K.e.H#K.l.8.e.m.J.M.y.H",
".C.a.D.E.r.o.F.G.i.A.i.H.i.I.g.f.b.o.w.h.w.v.b#H#H#w.A.f.a.K.r.L.f.G.r.c.M.g.c.t.a.h#K.m.E.a.f##.#.m",
".f.O.M.h.fQt.q.o.H.d.m.#.M.H.P.h.s.Q.aQt.D.e.w#w#w#w.i.v.S.J.y.R.m.T.g.h.U.g.w.I.D.C.t.o.r.b.f.m.H.w",
".T.F.D.r.H#o.S.c.D.r.g.ScX.a.J.bcY.W.L.M.D.c.K#w#w#w.h.i.R.9.a.a.i.t.A#b.u.M.c.o.w.K.h.c.a.M#a.t.o.S",
".r.h.s.i.A.D.o.WQt.G.0.A.a.r.X.i.M.i.h.h.h.1.i.Q.B.b.e.r.e.a.D.i.2.c.L.r.c.G.h.h.C.d.c.v.CQt#o.ecZ.E",
".H.a.3.b.l.t.b.g.t.#.a.H.m.o.e.h.b.r.A.C.M.h.J.E.F.L.g.H.4.f.5.a.b.r.r.U.i.a#a.G.h.K.g#a.a.8.E.l.D.M",
".K.i.e.r.B.Q.r.G.o.#.M.h.7.E.b.8.B.M.i.e.S.h.t.d.R.J.e.E.9.b.b.g#..c.M.r.J##.a.b.D.J.d.H.h.c.s.o.A.f",
".o#b.H.R.o.a.M.L.Q.L.K.8.M.J.f.R.a.v.w.d.K.e.H.i.o.c#c.r.eQt.r.Z.r.C.r#d.4.A.B.a.d.Cc0.D.r.D.X.g.h.a",
".X.A#..w.L.S.F.#.#.I.J.r.l.t.h.p.M.K.D.w.s.y.J.B.i.U.r.l.c.A.J.h.cc1.6.a.h.r.R.f.E.r.D.Q.Dc2.I.G.s.M",
".H.w.H.h.A.o.F.8.s.o.U.a.s.Q.f.Xc2.r.h.X.b.K.s.M.X.D.0.t.S.H.a.#.s.B.Rc3#b.d.R.o.x.Mc4.W.A.a.p.h.c.b",
".i.h.w.K.M.F.r.a#a.B.R.Qc1.o.M.Z.oQt.b.c.8.w.H.h.c.B.M.K.D.o.m.b.A.f.abI.J.s.o.X.h.t.c.D.o.R.Y.h.m.b",
".M.F.K.Q.g.y#o.A.Y.A.s.X.H.H.n.B.a.r.m.a.K.w.b.c.A.i.r#K.A.Z.A.d.L.R.4.v.4.f.i.L.T.dcJ.h.t.i.U.H.r#u"};
