/* XPM */
static char *dummy[]={
"50 50 500 2",
"#M c #000000",
"dQ c #000409",
"d2 c #000b1d",
"dS c #001638",
"et c #001831",
"es c #00183e",
"eD c #001e4b",
"eE c #001f4d",
"d0 c #002752",
"d1 c #002a5b",
"ee c #002f61",
"dF c #003061",
"dG c #003062",
"dR c #003366",
"en c #010101",
"fy c #010200",
"#8 c #010300",
"e2 c #010500",
"cs c #010700",
"eX c #020101",
"e9 c #020203",
"cP c #020500",
"dY c #020700",
"cd c #030202",
"#1 c #030303",
"cL c #030304",
"bz c #030501",
"dr c #030801",
"fJ c #031201",
".0 c #038300",
"cj c #040404",
"fN c #040405",
"fG c #040e01",
"b7 c #041f01",
"#j c #048a01",
"fP c #049e00",
"bh c #050100",
"bj c #050101",
"dq c #050507",
"fm c #051301",
"ah c #060505",
"fw c #060606",
"ej c #060608",
"cl c #060902",
"#z c #069201",
"dU c #070706",
"#3 c #070707",
"dM c #070709",
"ev c #071a02",
"ck c #072301",
"eu c #081d02",
"#U c #090807",
"er c #09090b",
"dL c #09090c",
"fT c #092702",
"fj c #092a02",
"bB c #0a1c02",
"a1 c #0b0a09",
"c# c #0b0b0b",
"dv c #0b1004",
"em c #0b2503",
"bX c #0c0b0a",
"e1 c #0c0c0c",
"ds c #0c2103",
"fh c #0c2603",
"ft c #0c2903",
"fS c #0c2b03",
"## c #0c8502",
".l c #0c8b02",
"b9 c #0d0d0d",
"cY c #0d0d11",
"e# c #0d2003",
"dp c #0d2b03",
"cJ c #0d3b03",
"ea c #0d4a03",
"#u c #0d9202",
"#h c #0d9b02",
"dc c #0e0e13",
"c7 c #0e1505",
"ac c #0f0300",
"dz c #0f0f10",
"c5 c #0f1604",
"eI c #0f2504",
"bV c #0f3503",
"eg c #0f4303",
"ch c #0f5504",
"d9 c #101015",
"dh c #107603",
"cw c #111010",
"dd c #111116",
"fx c #113a04",
"fW c #113d04",
"dX c #117d03",
"aY c #12100f",
"ez c #121218",
"eB c #130d08",
"e6 c #131318",
"fI c #133305",
"cK c #133b04",
"cx c #141414",
".x c #148304",
".v c #148c04",
".I c #149304",
"#T c #150400",
"#S c #150500",
"cI c #153005",
".Q c #159a04",
"eP c #161312",
"d. c #161616",
"#a c #16a105",
"cN c #171413",
"bF c #171512",
"cZ c #171717",
"c1 c #176105",
"de c #18181a",
"cF c #183806",
"c9 c #184906",
"bG c #191614",
"bl c #191615",
"dy c #191919",
"fr c #191921",
"eJ c #197105",
"dP c #198d05",
"df c #1a1a1c",
"cB c #1a2607",
"cy c #1a4006",
"a0 c #1b1b1b",
"a6 c #1b3902",
"ew c #1b4906",
".8 c #1b8d06",
"f. c #1c120b",
"eh c #1c1917",
"c0 c #1c1c1c",
"cO c #1c5607",
"cT c #1c6106",
"eT c #1c7906",
"#i c #1c8607",
".J c #1c9406",
".d c #1c9b06",
".p c #1ca306",
"fu c #1d130c",
"cu c #1d1d1d",
"bP c #1d3b07",
"dZ c #1d4107",
".V c #1da907",
"b8 c #1e1e1e",
"eb c #1e1e24",
"cH c #1e5207",
"ey c #1e5607",
"bf c #1e7f06",
"d5 c #1e8b06",
"a8 c #1f0805",
"bc c #1f1b1a",
"cX c #1f1c18",
"cD c #1f4b07",
"fU c #1f8e08",
".N c #1f9308",
"eH c #206407",
"ek c #208b07",
"fo c #21160b",
"d3 c #213009",
"dO c #217b08",
".# c #218e07",
"ct c #21a907",
".t c #229407",
".i c #229c07",
".n c #22a407",
"fX c #235608",
".q c #238d08",
"dK c #247e08",
"eV c #249c08",
".A c #259408",
".M c #259b08",
"eW c #26262a",
"dx c #265509",
".1 c #268509",
".G c #26a308",
"fe c #272731",
"du c #27390e",
"db c #277809",
"dn c #28a40a",
"fE c #292929",
"cG c #299209",
"aW c #299a08",
"a2 c #2a0800",
"cR c #2a3c0c",
"ce c #2b2621",
"dI c #2b3f0f",
"a5 c #2b610a",
".b c #2b940a",
"e3 c #2b970a",
"cU c #2b990a",
"fR c #2c2c2e",
"be c #2c7e0b",
"ex c #2c870a",
".T c #2c8e0a",
".o c #2c9b0a",
".c c #2ca30a",
"Qt c #2cab0a",
"a# c #2d0b07",
"e4 c #2d2d38",
"c3 c #2d4210",
"#A c #2d9f0a",
"#v c #2db409",
"fz c #2e211b",
"eR c #2e2e2e",
"fF c #2e2e30",
"cC c #2e4310",
"fq c #2ebb0b",
"ai c #2f2a24",
"eZ c #2f2f2f",
"fb c #2f2f30",
"fa c #308e0b",
"fl c #30970b",
"fO c #31880c",
"eL c #323232",
"c8 c #324912",
"eS c #32910b",
".F c #32950c",
"cM c #332d27",
"bu c #333333",
"fd c #333340",
".a c #339c0c",
"#Z c #33a90c",
"af c #33b80b",
"fD c #343333",
".3 c #34870d",
".Y c #348d0d",
".h c #34a30c",
".L c #34ab0c",
".y c #34b30c",
"fB c #352315",
"aJ c #352f2c",
"bC c #353542",
"#t c #35950b",
"dV c #363636",
"av c #363702",
"dj c #364f13",
"cV c #37312a",
"el c #377111",
"cz c #385214",
"bs c #388508",
"dD c #388f0d",
"eG c #389c0d",
"bt c #39332c",
"bK c #395410",
"ca c #395415",
"b6 c #396303",
"cE c #3aa10e",
"b3 c #3b342e",
"fc c #3b3b49",
".s c #3b950e",
".D c #3b9d0e",
".r c #3ba30e",
".f c #3bab0d",
"fs c #3c312a",
"eC c #3c3c4b",
".2 c #3c8d0f",
".m c #3cb20e",
"dJ c #3d5916",
".9 c #3db90d",
"aD c #3e100a",
"bY c #3e3730",
"dE c #3e3734",
".j c #3ea210",
"do c #3f3734",
".6 c #3f9c10",
"bW c #3fa60f",
"cm c #405e17",
"a7 c #40830c",
"bp c #413a37",
"aC c #417f0c",
"fK c #41940f",
".u c #419b0f",
".g c #41a40f",
".e c #41ab0f",
"cA c #426018",
".U c #42b30f",
"dB c #433b37",
"bS c #434354",
"#G c #439c10",
"eM c #442d1c",
"au c #444d04",
".w c #44a410",
"bR c #44ba0f",
"bE c #454545",
"bQ c #455b05",
"fk c #45990f",
".B c #45ab10",
"aO c #45b110",
".K c #45b310",
"eY c #462e1c",
"d4 c #466514",
"c2 c #469810",
".5 c #46bc10",
"#H c #475606",
".7 c #489212",
"fC c #48aa11",
"eo c #493e33",
"da c #497515",
"cS c #4a4139",
".R c #4aa511",
"#V c #4b423a",
"dW c #4b423f",
"ao c #4b4b4b",
"dt c #4b6d19",
".H c #4bab11",
".E c #4bb212",
".S c #4bba12",
"e8 c #4c4c55",
"eU c #4c9c13",
"bo c #4d3402",
"b4 c #4d4705",
"dk c #4d701a",
"ei c #4e4e62",
"aN c #4e5506",
"#c c #4f8c0e",
"fV c #4f8c14",
"ef c #4fb012",
"c4 c #51761a",
"#P c #517b0c",
".C c #52ac13",
"aj c #534940",
".X c #53a613",
".Z c #53b313",
"ff c #543822",
".k c #549b16",
".W c #54bb13",
"#d c #552501",
"#f c #553303",
"dl c #557c1b",
".P c #55c114",
".O c #55cc13",
"#D c #564944",
"#s c #564e07",
"fL c #573a22",
"e7 c #57575c",
"fH c #57ab15",
"br c #581000",
"bA c #581b00",
"co c #584d49",
"#g c #586c0b",
"#Y c #592a02",
"ci c #592e03",
"bZ c #59811a",
".4 c #59ad16",
"eq c #5a3c25",
"e5 c #5a5a5e",
"cb c #5a831c",
".z c #5ac116",
"#k c #5b1901",
"aV c #5b4806",
"dg c #5b504c",
"#. c #5bb316",
"#b c #5bbc15",
"aX c #5c1a01",
"eN c #5c3d25",
"e0 c #5c5c5c",
"#e c #5e1200",
"a9 c #5e534f",
"bg c #5f5449",
"dw c #608b1d",
"c6 c #608c1d",
"eK c #60b417",
"#C c #611300",
"cc c #628e1c",
"aM c #631403",
"aP c #641400",
"ag c #645854",
"#r c #651400",
"#l c #661500",
"#B c #661505",
"aF c #661e0d",
"ed c #664422",
"eO c #666666",
"#w c #671500",
"a4 c #67c818",
"fA c #684528",
"bi c #691706",
"dH c #69981e",
"ay c #6a1708",
"#6 c #6b1808",
"#7 c #6dc219",
"di c #6ea020",
"b5 c #6f1900",
"ba c #6f6255",
"dm c #6fa120",
"#y c #701900",
"bJ c #70a321",
"bD c #727272",
"bb c #737373",
"#0 c #741b00",
"dN c #746661",
"#I c #751c10",
"#o c #761c00",
"bn c #771c00",
"ar c #771d11",
"ep c #78502b",
"#5 c #793a2a",
"#E c #7a3c2c",
"fn c #7a512c",
"aR c #7b7b7b",
"a3 c #7c2014",
"eA c #7c5733",
"c. c #7c7c7c",
"aL c #7d1f00",
"#Q c #7e2116",
"aK c #7e4133",
"cp c #7e6f69",
"aU c #7f2115",
"cg c #7f7061",
"fM c #815933",
"cv c #81716c",
"ak c #852410",
"fg c #85582d",
"fp c #85592c",
"cQ c #877767",
"#q c #882300",
"#F c #892400",
"fi c #8a5c2e",
"al c #8e270b",
"fQ c #8e5e30",
"#O c #8f270b",
"#J c #912900",
"f# c #916130",
"bk c #917f79",
"ab c #922800",
"az c #939393",
"d6 c #94827b",
"ae c #962a06",
"fv c #966432",
"bU c #969696",
"cW c #978574",
"ad c #979797",
"at c #982a00",
"#X c #982b05",
"#p c #992b00",
"as c #992b04",
"ec c #996633",
"bT c #999999",
"#m c #9b2c00",
"#x c #9d2d00",
"bw c #9d8a83",
"#K c #9e2d00",
"#R c #9e2d01",
"aa c #9f2d01",
"bI c #9f8c7a",
"an c #9f9f9f",
"#n c #a02e01",
"aZ c #a08d86",
"am c #a17c71",
"#L c #a2786c",
"e. c #a49089",
"aq c #a88074",
"cf c #aa968b",
"aw c #aa968e",
"d8 c #ad9891",
"aQ c #b39e96",
"#N c #b59489",
"bx c #bbbbbb",
"aE c #c0a9a0",
"b. c #c0a9a1",
"bH c #c3aca3",
"by c #c3c3c3",
"dC c #c6afa6",
"#W c #cab2a9",
"aS c #cbb39c",
"b# c #cbb3a9",
"aA c #ccb4aa",
"b0 c #cfb69f",
"eF c #d1b8ac",
"aB c #d2b9ad",
"bO c #d3baa2",
"b2 c #d3baa7",
"aI c #d7d7d7",
"eQ c #d8beaf",
"dT c #d9bfb0",
"aG c #dac0b1",
"bN c #dbc1a8",
"bq c #dfc4ab",
"dA c #e0c5b4",
"bd c #e2c7b5",
"#9 c #e3c8ae",
"#4 c #e3c8b5",
"cn c #e7cbb1",
"d7 c #e7ccb7",
"ap c #e8cdb8",
"ax c #ebcfb4",
"bM c #ebcfb9",
"bv c #edd1ba",
"b1 c #efd2bb",
"d# c #f4d7be",
"aH c #f5d8bf",
"cq c #f7d9bd",
"cr c #f8dbc0",
"bm c #faddc1",
"bL c #fbdec2",
"aT c #fbfbfb",
"a. c #ffe1c4",
"#2 c #ffffff",
"Qt.#.a.b.c.d.e.a.f.b.g.h.i.g.j.k.a.l.m.n.e.l.o.p.f.q.g.r.s.f.t.d.r.u.b.s.i.v.w.x.y.w.r.i.z.r.#.c.A.B",
".C.a.D.E.r.o.F.G.i.A.i.H.i.I.g.f.b.o.w.h.w.v.b.J.AQt.A.f.a.K.r.L.f.G.r.c.M.g.B.o.f.N.b.C.g.I.e.o.a.I",
".f.O.M.h.fQt.q.o.H.d.m.#.M.H.P.h.s.Q.aQt.D.e.w.a.h.R.i.v.S.J.y.R.m.T.g.h.U.g.r.J.h.R.K.d.f.s.V.t.M.e",
".R.a.J.B.r.w.R.h.M.A.K.e.d.o.J.G.x.C.G.W.rQt.f.w.f.n.t.I.D.B.l.M.l.A.i.X.C.J.a.h.w.Q.A.A.w.r.Y.p.Z.#",
".r.h.s.i.A.D.o.WQt.G.0.A.a.r.X.i.M.i.h.h.h.1.i.Q.B.b.e.r.e.a.D.i.2.c.L.r.c.G.A.i.F.v.h.w.r.A.f.HQt.Z",
".H.a.3.b.l.t.b.g.t.#.a.H.m.o.e.h.b.r.A.C.M.h.J.E.F.L.g.H.4.f.5.a.b.r.r.U.i.a.6.F.l.X.a.n.j.r.H.J.f.c",
".K.i.e.r.B.Q.r.G.o.#.M.h.7.E.b.8.B.M.i.e.S.h.t.d.R.J.e.E.9.b.b.g#..c.M.r.J##.d.a.a#a.c.h.D.G.p.c.J.o",
".o#b.H.R.o.a.M.L.Q.L.K.8.M.J.f.R.a.v.w.d.K.e#c#d#e#e#e#e#e#e#f#g.r.C.r#h.4.A.m.s#i#..c.h.R.r.r#a.b.o",
".D#j.e.h.G.h.W.t.f.o.s.L.m.n.B.v.F.S.a.c#k#l#m#n#n#n#n#n#n#n#n#n#o#p#q#r#e#e#s#t.i.d.S#b.a.h.M.s#u.o",
".H.w.H.h.A.o.F.8.s.o.U.a.s.Q.f.X#v.r.h.X#e#n#n#n#n#n#n#n#n#n#n#w#e#n#n#n#n#x#y#e.C.h.k.t.f.b.J.c.6.Q",
".i.h.w.K.M.F.r.a#a.B.R.Q#z.o.M.Z.oQt.b#A#B#n#n#n#n#n#n#n#n#n#C#D#E#n#n#n#n#n#n#F.A.U.2.i.D.M.u.f#b.l",
".M.F.K.Q.g.y#G.A.Y.A.s.X.H.H.n.B.a.r.m#H#I#n#n#n#n#n#n#n#J#K#L#M#N#O#n#n#n#n#n#n#P.0.c.K.F.f.o#b.v.o",
".I.A.M.8.f.H.G.L.r.b.w.b.f.r.h.A.A.f.9#e#Q#R#n#n#n#n#n#n#S#T#U#V#W#e#X#n#n#n#n#n#Y.f.I.R.G.F.r.g.Y#a",
".B.I.L.J.M.h.H.o.s.B.g.h.f.M.A.r.i#u#Z#M#M#Q#n#n#n#n#n#0#1#2#2#3#4#5#6#n#n#n#n#n#e.H.c.Q.C#7.t.r.r.o",
".Z.c.d.c#G.a.#.g.c.g.f.f.M.g.F.Z.q.8#8#9a.a#aa#n#n#nabac#2#2#2ada.#W#eae#n#n#n#n#e.o.b.H.a.H.o.H.r.W",
".b.M.#.r.J.h.h.f.I.b.o.R.a.f.D.H.bafagahaiaj#Qakal#eaman#2#2#2aoap#Waqaras#n#n#natau.f.E.8.l.A.c.D##",
".f.f.o.d#..E.a.a.M.w.d.f.a.f.y.t.nav#Waw#Uax#Qay#e#W#M#2#2#2az#MaAaB#W#e#Q#n#n#n#F#e.8.U.f.J.g.F.Q.w",
".r.e.b.A.c.F.f.D.b.a.r.L.h.w.LaC#eaD#W#WaEa.aFaGaH#1aI#2#2#2#M#M#Wa.aJaK#B#n#n#naLaMaN.f.M.J.h.Z.Z.d",
"#b.J.w.d.A.A.J.r.U.J.t.a.q.raOaP#n#QaQ#W#Wa.a.a.a.aR#2#2#2#2#M#M#WaSaT#2#eaU#n#n#KaV.caW.r.H.g.g.h.a",
"Qt.#.a.b.c.d.e.a.f.b.g.h.i.gaX#e#e#QaY#WaZ#W#Wa.a.a0#2#2#2#2#M#M#Wa1#2#2a2a3#n#n#n#e.M.J.rQt.d#G.o.o",
".r.J.Z.K.D.r.Q.T.K.J.ba4a5a6a7#e#x#Qa8a9#Wb.#Wb#a.babb#2#2#2#2bcbd#M#2#2#M#e#n#nat#ebe.Z.a.e.g.L.c.a",
".f.O.M.h.fQt.q.o.H.d.mbfaibg#1#Mbhbi#Qbjbkbl#W#Wa.a.#M#2#2#2#M#Wbmah#2#2#M#e#n#nbnbo.L.h.c.F.t.h.R.B",
".R.a.J.B.r.w.R.h.M.A#Mbpa.a.a.a.a.bq#M#Mbrbs#U#W#Wbta.#Mbu#Mbmbva.bwbxbybzbA#n#n#e.m.a.r.n.p#..D.e.a",
".Q.F.r.t.g.h.U.fbBbCbDbE#MbFbGbHb#a.bIbJbK#M#MaQ#WbL#Ma.a.a.a.bMbNa.a.bObPbQ#n#l.s.L.h.A#b.y.h.g.fbR",
".H.a.3.b.l.t.b.g#MbSbTbTbUbVbW#MbX#WbYbJbJbZaJ#M#W#Wb#b0a.a.a.b1b2b3#1a.#Mb4b5b6.h.d.6.d.o.b.C.h.M.s",
".a.G.e.v.M.o.rb7a0b8b9#Mc.c#.R.R.Q#McacbbJcca.#Wcd#WaA#Wcea.a.a.#Wcfa.cgchci.l.F.l.w.G.D.d.8.L.h.R.A",
".o#b.H.R.o.a.M#Mb8b8b8b8cjck.f.R.a.vclcmbJcccn#W#Wco#W#W#Wcpbacqcra.a.cs.4.A.U.q.H.Hct.h.r.f.D.h.d.C",
".D#j.e.h.G.h#Mcucvcwb8b8b8cxcy.v.F.SczcAbJbJcBa.bHcC#M#Wa.a.a.a.a.#McDcEcF#McGcHcIcJ.W.u.M.JQt.J.M.b",
".H.h.w.C.McKcLb8b9cMa.cNb8axcO.r.vcPcAcAbJbJbJcQcRcAcA#MaAcrcS#McTcU#8cVcqa.cWa.a.cX.T.J.o.A.M.o.H.N",
".i.h.w.K.M#McYb8b8b8b9cZc0bNc1c2#Mc3cAcCc4bJbJc5bJc6c7c8#M#Mc9.b.A#Md.a.bNa.cea.d##MQt.H.G.Hda.f.f.h",
".L.D.h.d.Ddb#Mdcdddddedfahdgdh#MdibJcAcAdjcAdkdldmbJdicAcldn.c.v.n#8b8cZ#Ma.#Mcddo#MQt.M.S.I.r.U.b.a",
".I.A.M.8.f.H.Gdp#Mdqdddddrds.h#M#MbJdmdtdu#MdvcAcAdwbJbJbJ#M.Maf.hdxdyb8dzdAdB#WdC#M.t.f.t.g.f.a.f.h",
".B.I.L.J.M.h.H.odDdE#W#M.f.M.AdFdG#MdHbJbJbJbJdidI#M#MdJa.a.dK.h#M#M#MdddLdMdN#W#W#M.D.o.f.D.K.J.C.e",
".r.U.p.C.Q.c.h.b.X.ydOdP.f.r.rdQdRdRdS#MbZbJbJbJbz.r.D#MdTa.dU#M#MbTdVdddddddWdWdC#MQt.D.r.o.w.r.o.Z",
".b.M.#.r.J.h.h.fdX#MdYdZ.a.f.D#Md0dRdRd1d2#Md3d4#M.F#vd5d6d7a.a.d8bTbTd9dddde.#W#We#.D.f.o.t.M.F.B.i",
".g.g.a.M.r.r#u.Leaebbueced#M#M#M#MeedRdRdRdR#M#Mef.r.a.aegeh#W#We.#Mei#Mej#Mek.hel.t.r.o#..T.r.o.c.v",
".r.e.b.A.c.F.f.DemeneoecececepeqeresdRdRdRdReteu.#.A.X.M.aev#M#Mewex#Mey.w.r.C.c.h.b.G.F.n.g.t.b.f.B",
"#b.J.w.d.A.A.J.rezbueAececececeBeC#MeDeE#MaYeFeGeHeIeJ.d.r.r.8.h.h.a.g.H.Mct.D.y.r.v.MeK.v.m.d.o.a.Q",
"Qt.#.a.b.c.d.e.a#MeLecececeMeNcjeO#M#MePageQ#MeReOeO#M.r.seSeT.d.r.u.b.s.i.v.K.e.HeU.l.8.e.m.J.M.y.H",
".C.a.D.E.r.o.FeVeWbuecececeXeYeZeO#Md6#W#Mahe0eOeOe1e2.f#M#M#M#M.f.G.r.c.M.g.c.t.a.heU.m.E.a.f##.#.m",
".f.O.M.h.fQt.qe3#Mbuececec#M.Pe4e5#MahbXe6e7e8e9#Mf..i#Mecececf#fa.T.g.h.U.g.w.I.D.C.t.o.r.b.f.m.H.w",
".T.F.D.r.H#G.S.cfbbuececec#M.Je9fc#M.L.Mfdfe#Mffeqfgfhfiececececfj.t.A#b.u.M.c.o.w.K.h.c.a.M#a.t.o.S",
".r.h.s.i.A.D.ofk#Mbuececec#M.X.i.M.i.h.hflfmeqfnecfofpecececbubu#M.c.L.r.c.G.h.h.C.d.c.v.CQt#G.efq.E",
".H.a.3.b.l.t.b.gfrfsecececft.e.h.b.r.A.C.M.hfuecfvecececbubufwbufx.r.r.U.i.a#a.G.h.K.g#a.a.8.E.l.D.M",
".K.i.e.r.B.Q.r.GfyfzeqfAfBfC.b.8.B.M.i.e.S.h#MececececfDfEfFfGezfH.c.M.r.J##.a.b.D.J.d.H.h.c.s.o.A.f",
".o#b.H.R.o.a.M.L.Q.LfIfJc1.J.f.R.a.v.w.d.K.efKfLecfMbudM#1fNfO.Z.r.C.r#h.4.A.B.a.d.CfP.D.r.D.X.g.h.a",
".X.A#..w.L.S.F.#.#.I.J.r.l.t.h.p.M.K.D.w.s.y.JeXfQbufR#MfS.A.J.h.c#z.6.a.h.r.R.f.E.r.D.Q.D#v.I.G.s.M",
".H.w.H.h.A.o.F.8.s.o.U.a.s.Q.f.X#v.r.h.X.b.K.sfTejdd#M.t.S.H.a.#.s.B.RfU#b.d.R.o.x.MfV.W.A.a.p.h.c.b",
".i.h.w.K.M.F.r.a#a.B.R.Q#z.o.M.Z.oQt.b.c.8.w.H.hfWfX.M.K.D.o.m.b.A.f.abR.J.s.o.X.h.t.c.D.o.R.Y.h.m.b",
".M.F.K.Q.g.y#G.A.Y.A.s.X.H.H.n.B.a.r.m.a.K.w.b.c.A.i.reU.A.Z.A.d.L.R.4.v.4.f.i.L.T.del.h.t.i.U.H.r#u"};
