/* XPM */
static char *dummy[]={
"50 50 668 2",
"a9 c #000000",
"dW c #000001",
"aN c #000100",
"fP c #000104",
"gs c #000409",
"fb c #00040c",
"fO c #000814",
"go c #000917",
"gr c #000a17",
"fU c #000a1a",
"f4 c #000c20",
"fr c #000f26",
"fW c #001021",
"fQ c #001023",
"fq c #00122b",
"fS c #00193e",
"fF c #001c46",
"fo c #001e4b",
"fE c #001e4c",
"fp c #001e4d",
"fn c #001f4c",
"g. c #00214f",
"fs c #002248",
"fR c #002352",
"fG c #002454",
"fI c #002951",
"fV c #002f62",
"fm c #003163",
"fH c #003264",
"ft c #003364",
"fD c #003366",
"g# c #003367",
"fu c #003468",
"ga c #003569",
"hq c #007d00",
"ii c #010102",
"a6 c #010200",
"bp c #010203",
"bk c #010300",
"aM c #010400",
"h3 c #020203",
"ip c #020302",
"eF c #020400",
"fB c #020500",
"bF c #020600",
"eQ c #022600",
"gx c #030102",
"f5 c #030304",
"c8 c #030305",
"e3 c #030701",
"gk c #030901",
"hb c #030d01",
"ev c #030f01",
"#k c #038300",
"dE c #040404",
"bh c #040406",
"dC c #040503",
"bC c #040505",
"fv c #040c01",
"fK c #041701",
"#O c #048a01",
"ig c #049e00",
"ea c #050901",
"dU c #050b01",
"hD c #051101",
"f9 c #051501",
"aF c #060404",
"fT c #060f03",
"gW c #061601",
"#2 c #069201",
"a4 c #070706",
"gv c #070807",
"hC c #071002",
"bY c #072902",
"ec c #075001",
"ht c #080502",
"ge c #080809",
"cH c #08080b",
"eY c #080b02",
"eu c #080c03",
"aQ c #090807",
"c7 c #09090b",
"eg c #09090f",
"aO c #091702",
"at c #092402",
"a2 c #093104",
"gj c #093202",
"ez c #096501",
"gJ c #0a0b09",
"gP c #0a0c10",
"fN c #0a1403",
"fJ c #0a1a02",
"eb c #0b0b0c",
"iq c #0b0b0e",
"eE c #0b1f02",
"eM c #0b2303",
"fi c #0b2602",
"am c #0b8202",
"ci c #0c0b0b",
"bV c #0c0c0d",
"hv c #0c1a03",
"#C c #0c8502",
".l c #0c8b02",
"gl c #0d0c0b",
"ia c #0d1504",
"fj c #0d3003",
"hu c #0d5803",
"#V c #0d9202",
"#K c #0d9b02",
"aw c #0e0300",
"ej c #0e5f03",
"ie c #0f2a04",
"hh c #0f6703",
"hn c #101014",
"ei c #101015",
"eT c #101806",
"g3 c #105603",
"eD c #107103",
"bq c #111116",
"cG c #111117",
"ho c #112e04",
"hg c #113404",
"eh c #121217",
"eR c #123e04",
"gy c #130c05",
"bD c #131313",
"db c #131316",
"dX c #131317",
"cf c #131414",
"hO c #13141d",
"ey c #132b04",
"a1 c #135004",
"dy c #135504",
"af c #141311",
"hH c #141417",
"cg c #141418",
"hR c #141419",
"da c #141515",
".x c #148304",
".v c #148c04",
".I c #149304",
"ee c #151511",
"h2 c #15151c",
"iw c #153305",
".Q c #159a04",
"hZ c #160e07",
"bE c #161618",
"by c #161818",
"#D c #16a105",
"c4 c #170b0b",
"dZ c #171718",
"gM c #17171e",
"eH c #172107",
"gK c #175d05",
"ex c #181514",
"ew c #181613",
"hf c #18171d",
"bz c #181c1d",
"a7 c #187d05",
"hi c #19100a",
"gm c #191513",
"a5 c #191919",
"d. c #19191a",
"hQ c #191922",
"g1 c #191a21",
"bi c #1a1a1b",
"gU c #1a1a1f",
"fX c #1a1a21",
"gA c #1a1b1b",
"hP c #1b1a22",
"ij c #1b1b23",
"gD c #1b5306",
"#F c #1b8d06",
"dB c #1b9f06",
"bU c #1c1915",
"cI c #1c1c1c",
"ir c #1c1c24",
"bA c #1c1e1f",
"#M c #1c8607",
".J c #1c9406",
".d c #1c9b06",
"ih c #1ca206",
".p c #1ca306",
"ik c #1d1c1d",
"dY c #1d1d1d",
"gL c #1d1d24",
"gX c #1d1d26",
"bB c #1d1e1e",
"cd c #1d1e1f",
"hT c #1d4807",
".7 c #1da907",
"bj c #1e1e1e",
"cE c #1f1313",
"fy c #1f150a",
"bc c #1f1e1d",
"hG c #1f2021",
"bG c #1f8307",
"#1 c #1f8e08",
".N c #1f9308",
"cK c #20130f",
"g0 c #201811",
"gc c #201b18",
"dD c #20201f",
"h4 c #208707",
"id c #214808",
"fg c #218d07",
".# c #218e07",
"gB c #21a807",
"ed c #21a907",
"ek c #221f1d",
"gT c #222426",
"eC c #227808",
"iv c #228308",
".t c #229407",
".i c #229c07",
".n c #22a407",
"ef c #231f1b",
".q c #238d08",
"in c #24180c",
"f8 c #248008",
"eL c #25360e",
"hN c #256b08",
"a0 c #256f09",
"dz c #257109",
".A c #259408",
".M c #259b08",
"hc c #265f09",
".G c #26a308",
"hp c #26aa08",
"hd c #271a0d",
"iy c #276312",
"aD c #277909",
"g4 c #279909",
"fa c #287309",
"hJ c #288909",
"g7 c #292933",
"hS c #29710a",
"bW c #298c09",
".8 c #299907",
"bd c #2a2420",
"h7 c #2a2a2d",
"ag c #2a5509",
"h6 c #2b2b2e",
"gN c #2b2b37",
"dA c #2b7d09",
"eB c #2b820a",
"fC c #2b930a",
".b c #2b940a",
"g8 c #2c1d11",
"bX c #2c7e0b",
".4 c #2c8e0a",
".o c #2c9b0a",
".c c #2ca30a",
"Qt c #2cab0a",
"aA c #2d2824",
"io c #2db409",
"iz c #2e6610",
"gp c #2e7f0b",
"e2 c #2ebb0b",
"ce c #2f2923",
"bH c #2f2a02",
"h8 c #2f3133",
"gh c #2f3134",
"f3 c #2f750b",
"e6 c #2f820b",
"dV c #302a25",
"al c #302a28",
"hm c #303131",
"d3 c #30460d",
"gq c #30970b",
"ha c #313131",
"#s c #318c09",
"cW c #321102",
"fZ c #32200d",
"gY c #322114",
".F c #32950c",
"e1 c #334b0f",
"#B c #337906",
"hM c #33790c",
"hI c #338d0c",
".a c #339c0c",
"f# c #339f0c",
"fh c #33a00c",
"f. c #33b80b",
"hz c #343434",
"ix c #346819",
"fl c #34820c",
"#r c #34870d",
"#h c #348d0d",
"fw c #34a20c",
".h c #34a30c",
".L c #34ab0c",
".y c #34b30c",
"bn c #352f2c",
"gi c #35920d",
"cc c #361913",
"#3 c #367f08",
"eN c #36850c",
"gZ c #372417",
"g5 c #373744",
"f2 c #377111",
"bT c #381811",
"ic c #389b0d",
"ar c #392f29",
"#W c #395502",
"et c #395514",
"aP c #39a40c",
"aE c #39a60d",
"b# c #3a0e09",
"hA c #3b790e",
".s c #3b950e",
".D c #3b9d0e",
"ah c #3ba10e",
".r c #3ba30e",
".f c #3bab0d",
"cL c #3c1108",
"gO c #3c3c4c",
"a. c #3c8d0f",
".m c #3cb20e",
"it c #3d2813",
"hL c #3d2914",
"gt c #3d3532",
"cJ c #3d362f",
"ff c #3d5910",
"h1 c #3db90d",
"ch c #3e3632",
"eo c #3e5912",
"#v c #3e950d",
".j c #3ea210",
"di c #3f5e18",
"#w c #3f9c10",
"c2 c #400c00",
"f1 c #40342a",
"c6 c #40403f",
"fc c #405c12",
"d2 c #405e12",
"fk c #408a0f",
"ib c #40910f",
"av c #40a30f",
"ds c #410b00",
"g6 c #414152",
"#G c #414b03",
".u c #419b0f",
".g c #41a40f",
".e c #41ab0f",
"dT c #42434c",
"ct c #425f18",
".R c #426b08",
".5 c #42b30f",
"dr c #430900",
"d# c #433b33",
"#P c #435303",
"#J c #43800b",
".3 c #438d0b",
"h0 c #43960f",
"a# c #439c10",
"an c #442e02",
"a8 c #44a310",
".w c #44a410",
"#9 c #44ba0f",
"gw c #454553",
"dh c #454811",
"cS c #455414",
"#T c #45a110",
".B c #45ab10",
"e9 c #45b210",
".K c #45b310",
"hw c #462f1d",
".9 c #473301",
"be c #483e3b",
"#x c #489212",
"hr c #493218",
"eU c #497515",
"eV c #49a611",
"dg c #4a180c",
"h9 c #4a3e33",
"fx c #4a9b11",
"h5 c #4aa411",
".6 c #4aa511",
".H c #4bab11",
".E c #4bb212",
"#U c #4bba12",
"dp c #4c390c",
"e8 c #4c6f16",
"gV c #4c9c13",
"aa c #4ca310",
"gQ c #4d3320",
"eG c #4d701a",
"if c #4da312",
"aj c #4e0f09",
"aI c #4f110b",
"#f c #4f3302",
"iu c #4f8c14",
"dq c #501c02",
"cj c #511203",
"b0 c #511405",
"#y c #517b0c",
"#8 c #524604",
"dL c #527617",
"dJ c #52781a",
"do c #527a1b",
".C c #52ac13",
"cD c #531405",
".S c #533502",
"#g c #53a613",
"#i c #53b313",
"cR c #542b07",
"il c #544333",
"fY c #545454",
"dw c #54555d",
"es c #547a1c",
"cV c #547b1c",
".k c #549b16",
"#j c #54bb13",
"gb c #554a46",
"gG c #55555e",
".P c #55c114",
".O c #55cc13",
"hj c #563923",
"eW c #564c49",
"gF c #56565e",
"#q c #571801",
"#l c #57750d",
"e7 c #577e19",
"hl c #583b25",
"eI c #58801c",
"dd c #590900",
"cs c #591b02",
".1 c #591f01",
"hx c #593b25",
"g9 c #593c25",
"eS c #597f1a",
"#L c #59ad16",
"#0 c #5a1801",
".2 c #5a3304",
"hk c #5a3c25",
"dj c #5a831c",
"eX c #5aba15",
".z c #5ac116",
"df c #5b0e00",
".T c #5b1200",
"cu c #5b1701",
"bJ c #5b1f02",
"cT c #5b841c",
"#N c #5bb316",
"#E c #5bbc15",
"de c #5c0a00",
".U c #5c1000",
"cX c #5c1300",
"br c #5c2002",
"hE c #5c3d26",
"dn c #5c861d",
"cC c #5d1000",
"#. c #5d1100",
"gH c #5d5d62",
"aR c #5e1100",
"aG c #5e1200",
"aW c #5e1910",
"c9 c #5e524d",
"d5 c #5e8a1d",
"ab c #5f1200",
"#4 c #5f1301",
"fL c #5f4020",
"is c #5f4731",
"bS c #601100",
"#m c #601200",
"c1 c #601400",
"ba c #605551",
"gE c #606061",
"gC c #60b417",
".0 c #611200",
"bI c #613805",
"#t c #621300",
"bx c #621b00",
"dN c #628f1e",
"b8 c #631303",
"dc c #632c24",
"bZ c #63564b",
"#X c #641504",
"dG c #645854",
"eq c #64921e",
"#S c #651403",
"cM c #653c38",
"em c #65941f",
"cb c #661402",
"cQ c #671306",
"c3 c #674e46",
"dO c #676c4a",
"er c #67961f",
"cB c #681606",
"hB c #684522",
"g2 c #686868",
"bK c #691500",
"#z c #691603",
"#u c #691604",
"ca c #691606",
"#Q c #691707",
"#A c #691708",
"ck c #6a1a0a",
"gI c #6a6a69",
"#I c #6b1709",
"cY c #6b170a",
"fd c #6b9b20",
"#H c #6c1808",
"cl c #6c1809",
"dt c #6c3e33",
"gz c #6c4f33",
"gd c #6c6c6c",
"d6 c #6c9d20",
"ep c #6c9e20",
"cr c #6d190a",
"fe c #6d9f20",
"au c #6dc219",
"b5 c #6e1800",
"cx c #6e1803",
"bR c #6e190a",
"cy c #6e190b",
"en c #6ea121",
"#n c #6f1900",
"b1 c #6f190b",
"d4 c #6fa221",
".Z c #701900",
"d1 c #70635e",
"dk c #70a221",
"dl c #70a321",
"eZ c #70a421",
"hy c #715133",
"dK c #71a421",
"dM c #71a521",
"eJ c #71a522",
"cU c #71a621",
".V c #721a00",
"e0 c #72a522",
"he c #734d2b",
"eK c #73a721",
"c# c #741b00",
"d7 c #74a921",
"dm c #74a922",
"fM c #754d27",
"dF c #757584",
"cm c #761c0b",
"cP c #791e09",
"ax c #791e12",
"gR c #795028",
"cz c #7a1e0e",
"dQ c #7a6d67",
"dx c #7a7a7a",
"cZ c #7b1f0e",
"b. c #7b3d2d",
"f7 c #7b6c67",
"cv c #7c2016",
"bu c #7c2017",
"aq c #7d2115",
"bl c #7d2117",
"#e c #7e1f00",
"cp c #7e2009",
"b7 c #7e2016",
"ac c #7e2116",
"az c #7e2117",
"cA c #7f2111",
"#5 c #7f2115",
"aS c #7f2116",
"#7 c #7f2117",
"ao c #7f2215",
".Y c #812100",
"cN c #822100",
"aV c #822213",
"dS c #83736e",
".W c #842300",
"bt c #852311",
"aH c #862410",
"cw c #862411",
"hV c #865c33",
"hU c #875d33",
".X c #882300",
"## c #882400",
"c0 c #882409",
"bL c #8a2300",
"#Z c #8c260c",
"bQ c #8d2500",
"bv c #8d260c",
"ai c #8d270b",
"h# c #8d6133",
"d8 c #8d8467",
"hW c #8e6033",
"bP c #8f260a",
"aT c #8f270b",
"cq c #8f270e",
"hF c #8f5f31",
"ae c #92280a",
"ap c #942808",
"b4 c #942900",
"bO c #942907",
"ay c #942908",
"cn c #952907",
"gn c #95827d",
"cF c #96847c",
"aZ c #96847e",
"bm c #97290a",
"co c #972b09",
"hK c #976532",
"h. c #986532",
"aL c #98867f",
"gg c #996533",
"fz c #996633",
"#a c #9a2b01",
"b2 c #9a2b08",
"cO c #9a2c08",
"i. c #9a6633",
"fA c #9a6733",
"dv c #9a8880",
"aU c #9b2b04",
"ad c #9b2c03",
"#R c #9b2c04",
"f0 c #9b6733",
"im c #9b6834",
"c5 c #9b9ea1",
"#d c #9c2d01",
"hX c #9c6733",
"hY c #9c6734",
"hs c #9c6834",
"bw c #9d2c04",
"b9 c #9d2d02",
"bs c #9d2d03",
"gS c #9d6834",
"#o c #9e2d01",
"bN c #9f2d01",
"#Y c #9f2e01",
"#6 c #a02e00",
"#c c #a02e01",
"gf c #a06b36",
"bM c #a12e00",
"#p c #a12e01",
"c. c #a12f00",
"b6 c #a22e00",
"#b c #a22f01",
"i# c #a36d37",
"b3 c #a42f01",
"e4 c #a7938b",
"bg c #b29d93",
"dP c #b49e97",
"gu c #bca599",
"du c #c1a49a",
"bf c #c2aa9d",
"aC c #c3aca3",
"f6 c #c4aca2",
"e5 c #c4aca3",
"d0 c #c5aea6",
"dH c #c8b1a8",
"dR c #cab2a9",
"e. c #cbb2a9",
"e# c #cbb3aa",
"as c #cbb3ab",
"dI c #ccb3aa",
"eP c #cdb4ab",
"el c #cfb7ae",
"bo c #d0b7ae",
"bb c #d2baa7",
"d9 c #d2baad",
"eO c #d3bab1",
"eA c #e5caba",
"aX c #eed2ba",
"ak c #f4d7bf",
"a3 c #fbdec2",
"aY c #ffe1c4",
"aK c #ffe3c5",
"aJ c #ffebcd",
"aB c #ffeece",
"Qt.#.a.b.c.d.e.a.f.b.g.h.i.g.j.k.a.l.m.n.e.l.o.p.f.q.g.r.s.f.t.d.r.u.b.s.i.v.w.x.y.w.r.i.z.r.#.c.A.B",
".C.a.D.E.r.o.F.G.i.A.i.H.i.I.g.f.b.o.w.h.w.v.b.J.AQt.A.f.a.K.r.L.f.G.r.c.M.g.B.o.f.N.b.C.g.I.e.o.a.I",
".f.O.M.h.fQt.q.o.H.d.m.#.M.H.P.h.s.Q.R.S.T.U.V.W.X.X.X.Y.Z.0.1.2.3.4.g.h.5.g.r.J.h.6.K.d.f.s.7.t.M.e",
".6.a.J.B.r.w.6.h.M.A.K.e.d.o.J.8.9#.###a#b#c#c#c#c#c#c#c#c#c#b#d#e#f.i#g.C.J.a.h.w.Q.A.A.w.r#h.p#i.#",
".r.h.s.i.A.D.o#jQt.G#k.A.a.r#l#m#n#o#c#c#c#c#c#c#c#c#c#c#c#c#c#c#p#q.L.r.c.G.A.i.F.v.h.w.r.A.f.HQt#i",
".H.a#r.b.l.t.b.g.t.#.a.H.m#s#t#b#c#c#c#c#c#c#c#c#c#c#c#c#c#c#c#c#c#u#v.5.i.a#w.F.l#g.a.n.j.r.H.J.f.c",
".K.i.e.r.B.Q.r.G.o.#.M.h#x#y#z#c#c#c#c#c#c#c#c#c#c#c#c#c#c#c#c#c#c#A#B.r.J#C.d.a.a#D.c.h.D.G.p.c.J.o",
".o#E.H.6.o.a.M.L.Q.L.K#F.M#G#H#c#c#c#c#c#c#c#c#c#c#c#c#c#c#c#c#c#p#I#J#K#L.A.m.s#M#N.c.h.6.r.r#D.b.o",
".D#O.e.h.G.h#j.t.f.o.s.L.m#P#Q#c#c#c#c#c#c#c#c#c#c#c#c#c#c#c#c#c#R#S#T.r.E.a.E.a.i.d#U#E.a.h.M.s#V.o",
".H.w.H.h.A.o.F#F.s.o.5.a.s#W#X#Y#c#c#c#c#c#c#c#c#c#c#c#c#c#c#c#c#Z#0.6#1#E.d.6.e.C.h.k.t.f.b.J.c#w.Q",
".i.h.w.K.M.F.r.a#D.B.6.Q#2#3#4#5#c#c#c#c#c#c#c#c#c#c#c#c#c#c#c#6#7#8.a#9.J.s.I.#.A.5a..i.D.M.u.f#E.l",
".M.F.K.Q.g.ya#.A#h.A.s#g.Haaabacad#c#c#c#c#c#c#c#c#c#c#c#c#c#caeafag#L.v#L.f.5.o.H#k.c.K.F.f.o#E.v.o",
".I.A.M#F.f.H.G.L.r.b.w.b.fah#macac#c#c#c#c#c#c#c#c#c#c#c#c#caiajakalam.y.M.f.A.r.f.f.I.6.G.F.r.g#h#D",
".B.I.L.J.M.h.H.o.s.B.g.h.f.Manacacao#c#c#c#c#c#c#c#c#c#c#capaqarasat#i.c.d#w.L.w.f.H.c.Q.Cau.t.r.r.o",
"#i.c.d.ca#.a.#.g.c.g.f.f.Mavawaxacacad#c#c#c#c#c#c#c#c#cayazaAaBaCaD.B.j.o.M.r.r.D.o.b.H.a.H.o.H.r#j",
".b.M.#.r.J.h.h.f.I.b.o.6.aaEaFaGacacacac#c#c#c#c#c#c#caHacaIaJaKaL.a.L.n#NaMaNaO.r.M.f.E#F.l.A.c.D#C",
".f.f.o.d#N.E.a.a.M.w.d.f.aaPaQaRacacacacaSaT#c#c#caUaVacacaWaXaYaZa0a1.Fa2a3a4a5a6a7#F.5.f.J.g.F.Q.w",
".r.e.b.A.c.F.f.D.b.a.r.L.ha8a9b.#Xacacacacacacacacacacacacacb#babbbcbdbebfbgbhbibjaN.f.f.M.J.h#i#i.d",
"#E.J.w.d.A.A.J.r.5.J.t.a.q.r.KbkaGblacacacacacacacacacacacacbmbnbobpbjbjbjbjbjbjbqa9.c.G.r.H.g.g.h.a",
"Qt.#.a.b.c.d.e.a.f.b.g.h.i.g.jbr.Ubsbtbuacacacacacacacbubvbw#pbxbybzbAbBbjbCbDbEbFbG.M.J.rQt.da#.o.o",
".r.J#i.K.D.r.Q.4.K.JbHbIbJbKbL#p#c#c#c#cbMbNbOacbP#Y#p#c#c#c#c#c#pbQbRbSbTbUbVbEbW.obX#i.a.e.g.L.c.a",
".f.O.M.h.fQt.q.o.HbYbZb0b1b2b3b4b5#c#c#c#cb6b7b8az#c#c#cb9c.#c#oc#cacbcccdcecfcg.K.d.L.h.c.F.t.h.6.B",
".6.a.J.B.r.w.6.h.Mchcicjckclcmcncocp#c#pcqcrcsctcucvcwc.#ccxcyczcAcBcCcDcEcFcGcH.o.m.a.r.n.p#N.D.e.a",
".Q.F.r.t.g.h.5.f.rbUcIcJcKcLcM#.cNcOcPcQcRcScTcUcVcWcXcYcZc0c1c2c3c4c5c6c7c8bha6.s.L.h.A#E.y.h.g.f#9",
".H.a#r.b.l.t.b.g.tc9d.d#dadbdcdddedfdgdhdidjdkdldmdndodpdqdrdsdtdudvdwdxdydzdAdB.h.d#w.d.o.b.C.h.M.s",
".a.G.e.v.M.o.r.Q.ddCcgdDbjdEdFdGdHdIbndJdKdldLdldldldldMdNdOdPdQdRdSdTdU.7.e.l.F.l.w.G.D.d#F.L.h.6.A",
".o#E.H.6.o.a.M.L.QdVdWdXdYdZbVa9d0dRd1d2dldld3dldld4d5d6d7d8d9e.e#eaebec#L.A.5.q.H.Hed.h.r.f.D.h.d.C",
".D#O.e.h.G.h#j.t.feeefegeheicHejekela9bkemeneoepeqereseteuevewexey#F.w.r.E.a.o.r.H.i#j.u.M.JQt.J.M.b",
".H.h.w.C.M.h.h.o.fezeAdReBeC.a.reDeE.reFeqeGeHeIeJdleKeLeM.H.B.M.o.o.K.a.D.#.H.t#r.M.4.J.o.A.M.o.H.N",
".i.h.w.K.M.F.r.a#DeNeOePeQ.o.M#i.oQteReodldleSdldldldKeT.D.o.m.b.A.f.a#9.J.s.c.a.l.bQt.H.G.HeU.f.f.h",
".L.D.h.d.D.a.o.4a#eVeWe#aCeX.I.A.o.geYeZdle0eZdldldldle1.Fe2.c.v.n.G.B.h.e.r.G.r.f.AQt.M#U.I.r.5.b.a",
".I.A.M#F.f.H.G.L.r.be3e4e5e6.h.A.AaEe7eZdldldldldldldle8e9.b.Mf..h.6.l.y.M.f.n.D.l.b.t.f.t.g.f.a.f.h",
".B.I.L.J.M.h.H.o.s.B.gf#fa.M.A.r.i#VfbdWfcfddleZeZd4fefffg.A.ofhfifjfk.c.d#w.r.G.s.K.D.o.f.D.K.J.C.e",
".r.5.p.C.Q.c.h.b#g.y.c.d.f.r.r#L#MflfmfnfofpfqfrfrfsftfufvfwfxfyfzfzfAfBfC.i.I.6.6.hQt.D.r.o.w.r.o#i",
".b.M.#.r.J.h.h.f.I.b.o.6.a.f.D.H.baMfDfDfEfFfGfDfHfDfDfDfIfJfKfLfzfzfzfMfN.D#j.rQt.B.D.f.o.t.M.F.B.i",
".g.g.a.M.r.r#V.L.p.e.h#j#h.L.a.v.LaNfOfPfQfRfSfTfUfVfDfDfWfXfYfZfzfzfzf0f1.r.t.hf2.t.r.o#N.4.r.o.c.v",
".r.e.b.A.c.F.f.D.b.a.r.L.h.w.L.s.hf3f4f5f6f7fEf8f9g.g#gagbgcgdgegffzfzggghgi.C.c.h.b.G.F.n.g.t.b.f.B",
"#E.J.w.d.A.A.J.r.5.J.t.a.q.r.K#i.AgjgkglgmgngogpgqgrgsgtgugvgwgxgyfzfzgzgAgB.D.y.r.v.MgC.v.m.d.o.a.Q",
"Qt.#.a.b.c.d.e.a.f.b.g.h.i.g.j.kgDgEgFgGgHgIgJdB.fgKgLgMgNgOgPgQgRgSf0gTgU.v.K.e.HgV.l#F.e.m.J.M.y.H",
".C.a.D.E.r.o.F.G.i.A.i.H.i.I.g.fgWgXgYgZg0g1g2g3.Ag4c7g5g6g7g8g9h.gSh#hahb.g.c.t.a.hgV.m.E.a.f#C.#.m",
".f.O.M.h.fQt.q.o.H.d.m.#.M.H.P.hhchdfAfAf0hehfhg.h.6.ihhhihjhkhlf0fzhmhnho.g.w.I.D.C.t.o.r.b.f.m.H.w",
".4.F.D.r.Ha##U.c.D.r.g#Uhp.a.J.bhqhrfzfzfzhshthu.B.d.h.ihvhwhkhxhshyhzhA.u.M.c.o.w.K.h.c.a.M#D.t.o#U",
".r.h.s.i.A.D.o#jQt.G#k.A.a.r#g.i.MhBfzfzfzfzhC.Q.B.b.e.r.ehDhEhkhFhGhHhI.c.G.h.h.C.d.c.v.CQta#.ee2.E",
".H.a#r.b.l.t.b.g.t.#.a.H.m.o.e.hhJhKfzfzfzfzhLhM.F.L.g.H#LhNhOhPhQhRhS.5.i.a#D.G.h.K.g#D.a#F.E.l.D.M",
".K.i.e.r.B.Q.r.G.o.#.M.h#x.E.b#FhThUhVhWhXfzhYhZh0.J.e.Eh1hJf5h2gMh3h4.r.J#C.a.b.D.J.d.H.h.c.s.o.A.f",
".o#E.H.6.o.a.M.L.Q.L.K#F.M.J.fh5a9h6h7h7h8h9i.i#ia.cib.r.eQticidieif.r#K#L.A.B.a.d.Cig.D.r.D#g.g.h.a",
"#g.A#N.w.L#U.F.#.#.I.J.r.l.t.hihiiijijijh6ikilimin.5.r.l.c.A.J.h.c#2#w.a.h.r.6.f.E.r.D.Q.Dio.I.G.s.M",
".H.w.H.h.A.o.F#F.s.o.5.a.s.Q.f#gioipiqiqbqirdYisit.D#k.t#U.H.a.#.s.B.6#1#E.d.6.o.x.Miu#j.A.a.p.h.c.b",
".i.h.w.K.M.F.r.a#D.B.6.Q#2.o.M#i.oivaNa9aNiwixiyiz.B.M.K.D.o.m.b.A.f.a#9.J.s.o#g.h.t.c.D.o.6#h.h.m.b",
".M.F.K.Q.g.ya#.A#h.A.s#g.H.H.n.B.a.r.m.a.K.w.b.c.A.i.rgV.A#i.A.d.L.6#L.v#L.f.i.L.4.df2.h.t.i.5.H.r#V"};
